<svg xmlns="http://www.w3.org/2000/svg" viewBox="0 0 188.64 50"><defs><style>.cls-1{fill:#fff;}.cls-2{fill:#17313b;}.cls-3{fill:#ef4335;}</style></defs><rect class="cls-1" width="188.64" height="50" rx="2.27"/><path class="cls-2" d="M0,2.27A2.27,2.27,0,0,1,2.27,0H94.32V50h-92A2.28,2.28,0,0,1,0,47.78Z"/><path class="cls-1" d="M36,18.75h2.08V31.33H36Z"/><path class="cls-1" d="M45.32,27.34a2,2,0,0,1-1.86,2.13,1.5,1.5,0,0,1-.3,0c-1.27,0-1.45-1.15-1.45-1.77V22.82H39.64v4.79a3.68,3.68,0,0,0,1.09,2.83,3.29,3.29,0,0,0,2.44.89,3.16,3.16,0,0,0,2.15-.71v.71H47.4V22.82H45.32Z"/><path class="cls-1" d="M51.48,19.72H49.4v3.1H47.86v1.95H49.4v6.56h2.08V24.77H53V22.82H51.48Z"/><path class="cls-1" d="M59.53,28.76a3,3,0,0,1-1.72.62,2.37,2.37,0,0,1-2.44-2.3h0V26.9a2.29,2.29,0,0,1,2.19-2.39h0a1,1,0,0,1,.24,0,2.38,2.38,0,0,1,1.72.62l.27.26,1.45-1.33-.37-.26a4.68,4.68,0,0,0-3.07-1.15,4.34,4.34,0,1,0,0,8.68h0a4.68,4.68,0,0,0,3.07-1.15l.37-.27L59.8,28.49Z"/><path class="cls-1" d="M68.56,23.53a2.85,2.85,0,0,0-2.24-.88,2.72,2.72,0,0,0-2,.71V18.75H62.24V31.33h2.08v-4.7c0-1.95,1.36-2.12,1.9-2.12,1.27,0,1.18,1.15,1.18,1.77v5h2.07V26.37A4,4,0,0,0,68.56,23.53Z"/><path class="cls-3" d="M57.72,28.41A1.42,1.42,0,1,0,56.32,27v0h0A1.44,1.44,0,0,0,57.72,28.41Z"/><path class="cls-1" d="M33.14,28.23a4.27,4.27,0,0,1-3,1.15,3.93,3.93,0,0,1-3.83-4v-.17A3.93,3.93,0,0,1,30,21.06h.32a4.32,4.32,0,0,1,3,1.24l.27.27L35,21.23,34.58,21a6.15,6.15,0,0,0-4.33-1.77,5.78,5.78,0,0,0-6,5.55,3.38,3.38,0,0,0,0,.45,5.9,5.9,0,0,0,5.67,6.11h.21a6,6,0,0,0,4.33-1.77l.28-.27L33.41,28Z"/><path class="cls-3" d="M111.24,11.93,113,15.34l3.41.43L114,18.39l.64,3.77-3.41-1.71-3.41,1.71.64-3.77-2.34-2.62,3.41-.43Z"/><path class="cls-3" d="M124.88,11.93l1.7,3.41,3.41.43-2.34,2.62.64,3.77-3.41-1.71-3.41,1.71.64-3.77-2.35-2.62,3.41-.43Z"/><path class="cls-3" d="M138.51,11.93l1.71,3.41,3.41.43-2.31,2.62.63,3.77-3.41-1.71-3.4,1.71.64-3.77-2.35-2.62,3.41-.43Z"/><path class="cls-3" d="M152.15,11.93l1.71,3.41,3.4.43-2.34,2.62.64,3.77-3.41-1.71-3.41,1.71.64-3.77L147,15.77l3.41-.43Z"/><path class="cls-3" d="M165.79,11.93l1.7,3.41,3.41.43-2.34,2.62.64,3.77-3.41-1.71-3.41,1.71.64-3.77-2.35-2.62,3.41-.43Z"/><path d="M107.73,36.36V30h2.38a3.47,3.47,0,0,1,1.39.26,2,2,0,0,1,.9.75,2.1,2.1,0,0,1,.31,1.17,2.18,2.18,0,0,1-.31,1.17,2,2,0,0,1-.9.74,3.47,3.47,0,0,1-1.39.26h-2l.3-.31v2.32Zm4.35,0-1.64-2.31h.73l1.64,2.31Zm-3.68-2.27-.3-.32h2a2.11,2.11,0,0,0,1.44-.42,1.44,1.44,0,0,0,.5-1.17,1.48,1.48,0,0,0-.5-1.18,2.11,2.11,0,0,0-1.44-.42h-2l.3-.32Zm4.92,2.27L116.19,30h.67l2.91,6.36h-.71l-2.68-6h.28l-2.68,6Zm1.15-1.7.2-.54h3.65l.2.54Zm7.3,1.7V30.58h-2.23V30h5.14v.58h-2.23v5.78Zm4,0V30h.67v6.36Zm2.74,0V30h.56l4.39,5.53h-.29V30h.66v6.36h-.55l-4.39-5.52h.29v5.52Zm10.19.06a3.66,3.66,0,0,1-1.35-.24,3.49,3.49,0,0,1-1.06-.68,2.92,2.92,0,0,1-.7-1,3.49,3.49,0,0,1,0-2.58,3.09,3.09,0,0,1,.71-1,3.28,3.28,0,0,1,1.06-.67,4,4,0,0,1,2.67,0,2.57,2.57,0,0,1,1,.69l-.42.43a2.23,2.23,0,0,0-.88-.57,3.09,3.09,0,0,0-1-.17,2.74,2.74,0,0,0-1.09.2,2.53,2.53,0,0,0-.86.55,2.84,2.84,0,0,0-.57.84,2.57,2.57,0,0,0,0,2,2.84,2.84,0,0,0,.57.84,2.72,2.72,0,0,0,.86.56,3.13,3.13,0,0,0,1.09.19,3.09,3.09,0,0,0,1-.17,2.26,2.26,0,0,0,.9-.55l.38.51a3.12,3.12,0,0,1-1.06.61,4.14,4.14,0,0,1-1.3.23Zm1.69-.89V33.18H141v2.43Z"/><path d="M159.94,34.84h-1.31v1.69h-1.82V34.84h-4.33V33.59l3.79-5.11h2l-3.52,4.84h2.16v-1.5h1.76v1.5h1.31Z"/><path d="M161,36.3a1.06,1.06,0,0,1-.32-.8,1,1,0,0,1,.32-.8,1.12,1.12,0,0,1,.79-.31,1.14,1.14,0,0,1,.8.31,1.06,1.06,0,0,1,.32.8,1.09,1.09,0,0,1-.32.8,1.07,1.07,0,0,1-.8.32A1,1,0,0,1,161,36.3Z"/><path d="M169.23,32.55a2.16,2.16,0,0,1,.57,1.52,2.48,2.48,0,0,1-.37,1.3,2.56,2.56,0,0,1-1.12.94,4.27,4.27,0,0,1-1.85.36,6.28,6.28,0,0,1-1.67-.22,4.52,4.52,0,0,1-1.4-.64l.73-1.43a3.53,3.53,0,0,0,1.06.54,4.28,4.28,0,0,0,1.24.19,2,2,0,0,0,1.1-.27.87.87,0,0,0,.4-.77q0-1-1.5-1h-.85V31.85L167.22,30h-3.43v-1.5h5.64v1.21l-1.82,2.07A2.71,2.71,0,0,1,169.23,32.55Z"/></svg>