<svg xmlns="http://www.w3.org/2000/svg" viewBox="0 0 33 55" fill="#2ad2ff"><path d="M16.4,34.2,0,22.6l6.6,1a5,5,0,0,1,3.8,2.5Z"/><path d="M16.3,30.4l-4.5-6.3,4.5,1,4.3-1-4.3,6.4"/><path d="M33,22.6l-6.8,1a5.5,5.5,0,0,0-3.8,2.3l-5.8,8.4Z"/><path fill="#2af4ff" d="M18.8,6.7c0,4.4-7.6,6.7-7.6,11.4a6,6,0,0,0,.7,3.2S9,18.5,9,15.5,11.8,8,11.8,8c0,2,1,2.7,1.6,2.7,1,0,1.5-.7,1.5-1.7s-1-2-1-4,2.4-5,2.4-5a10.2,10.2,0,0,1,2.6,6.7"/><path fill="#2af4ff" d="M16.7,22.7a4.1,4.1,0,0,1-4.2-4V18.5c0-5.2,7.1-5.7,7.1-12.6a11,11,0,0,1,2.1,5.7c0,3.5-3.3,4.4-3.3,6.1a1.2,1.2,0,0,0,1.2,1.2A1,1,0,0,0,20,18.8a5.3,5.3,0,0,0,3.3-4.7c0,0,1,8.6-6.6,8.6"/><path d="M15.4,17.4c0-3.2,5.5-4,5.5-6.6a9.5,9.5,0,0,0-1.3-5,11,11,0,0,1,2.1,5.7c0,3.5-3.4,4.5-3.3,6.1a1.2,1.2,0,0,0,1.2,1.2A1.1,1.1,0,0,0,20,18.8C19.2,19.1,15.4,20,15.4,17.4Z"/><path d="M16.8,8.5c0,2.5-3.2,2.3-3.4,2.2,1,0,1.5-.7,1.5-1.7s-1.1-2-1.1-4,2.4-5,2.4-5a8.6,8.6,0,0,0-1.1,4.1c0,2.3,1.7,2.5,1.7,4.4"/><path d="M15,52.2l-2.2-1.5h2.7l1-2.7.8,2.7h2.7l-2.2,1.5.8,2.6-2.2-1.6-2.3,1.6,1-2.6"/><path d="M26.3,52.2l-2.2-1.5h2.7l1-2.7.8,2.7h2.7L29,52.2l.8,2.6-2.2-1.6-2.3,1.6,1-2.6"/><path d="M3.4,52.2,1.2,50.7H4L5,48l.8,2.7H8.3L6.1,52.2l.8,2.6L4.7,53.2,2.5,55l1-2.6"/><path fill="#2af4ff" d="M16.3,45.8,0,22.6,16.4,34.2,33,22.6,16.3,45.8"/></svg>