<svg xmlns="http://www.w3.org/2000/svg" xmlns:xlink="http://www.w3.org/1999/xlink" viewBox="0 0 188.64 50"><defs><style>.cls-1{fill:#fff;}.cls-2{fill:url(#linear-gradient);}.cls-3{fill:url(#linear-gradient-2);}.cls-4{fill:url(#linear-gradient-3);}.cls-5{fill:url(#linear-gradient-4);}.cls-6{fill:url(#linear-gradient-5);}.cls-7{fill:#051d4e;}.cls-8{fill:url(#linear-gradient-6);}.cls-9{fill:url(#linear-gradient-7);}.cls-10{fill:url(#linear-gradient-8);}.cls-11{fill:url(#linear-gradient-9);}.cls-12{fill:#2ad2ff;}.cls-13{fill:url(#linear-gradient-10);}.cls-14{fill:#2af4ff;}.cls-15{font-size:11.5px;font-family:Montserrat-Bold, Montserrat;font-weight:700;}.cls-16{letter-spacing:0.02em;}</style><linearGradient id="linear-gradient" x1="106.12" y1="32.84" x2="116.41" y2="32.84" gradientTransform="matrix(1, 0, 0, -1, 0, 49.89)" gradientUnits="userSpaceOnUse"><stop offset="0.73" stop-color="#2af4ff"/><stop offset="0.88" stop-color="#2af4ff"/></linearGradient><linearGradient id="linear-gradient-2" x1="119.76" y1="32.84" x2="129.99" y2="32.84" xlink:href="#linear-gradient"/><linearGradient id="linear-gradient-3" x1="133.43" y1="32.84" x2="143.63" y2="32.84" xlink:href="#linear-gradient"/><linearGradient id="linear-gradient-4" x1="147" y1="32.84" x2="157.26" y2="32.84" xlink:href="#linear-gradient"/><linearGradient id="linear-gradient-5" x1="160.67" y1="32.84" x2="170.9" y2="32.84" xlink:href="#linear-gradient"/><linearGradient id="linear-gradient-6" x1="59.84" y1="820.26" x2="87.44" y2="820.26" gradientTransform="translate(0 -792)" xlink:href="#linear-gradient"/><linearGradient id="linear-gradient-7" x1="59.84" y1="820.28" x2="87.44" y2="820.28" gradientTransform="translate(0 -792)" xlink:href="#linear-gradient"/><linearGradient id="linear-gradient-8" x1="59.84" y1="820.36" x2="87.44" y2="820.36" gradientTransform="translate(0 -792)" xlink:href="#linear-gradient"/><linearGradient id="linear-gradient-9" x1="59.84" y1="820.29" x2="87.44" y2="820.29" gradientTransform="translate(0 -792)" xlink:href="#linear-gradient"/><linearGradient id="linear-gradient-10" x1="59.87" y1="824.11" x2="7.19" y2="820.09" gradientTransform="translate(0 -792)" xlink:href="#linear-gradient"/></defs><rect class="cls-1" width="188.64" height="50" rx="2.27"/><path class="cls-2" d="M111.24,11.93,113,15.34l3.41.43L114,18.39l.64,3.77-3.41-1.71-3.41,1.71.64-3.77-2.34-2.62,3.41-.43Z"/><path class="cls-3" d="M124.88,11.93l1.7,3.41,3.41.43-2.34,2.62.64,3.77-3.41-1.71-3.41,1.71.64-3.77-2.35-2.62,3.41-.43Z"/><path class="cls-4" d="M138.51,11.93l1.71,3.41,3.41.43-2.31,2.62.63,3.77-3.41-1.71-3.4,1.71.64-3.77-2.35-2.62,3.41-.43Z"/><path class="cls-5" d="M152.15,11.93l1.71,3.41,3.4.43-2.34,2.62.64,3.77-3.41-1.71-3.41,1.71.64-3.77L147,15.77l3.41-.43Z"/><path class="cls-6" d="M165.79,11.93l1.7,3.41,3.41.43-2.34,2.62.64,3.77-3.41-1.71-3.41,1.71.64-3.77-2.35-2.62,3.41-.43Z"/><path d="M107.73,36.36V30h2.38a3.47,3.47,0,0,1,1.39.26,2,2,0,0,1,.9.75,2.1,2.1,0,0,1,.31,1.17,2.18,2.18,0,0,1-.31,1.17,2,2,0,0,1-.9.74,3.47,3.47,0,0,1-1.39.26h-2l.3-.31v2.32Zm4.35,0-1.64-2.31h.73l1.64,2.31Zm-3.68-2.27-.3-.32h2a2.11,2.11,0,0,0,1.44-.42,1.44,1.44,0,0,0,.5-1.17,1.48,1.48,0,0,0-.5-1.18,2.11,2.11,0,0,0-1.44-.42h-2l.3-.32Zm4.92,2.27L116.19,30h.67l2.91,6.36h-.71l-2.68-6h.28l-2.68,6Zm1.15-1.7.2-.54h3.65l.2.54Zm7.3,1.7V30.58h-2.23V30h5.14v.58h-2.23v5.78Zm4,0V30h.67v6.36Zm2.74,0V30h.56l4.39,5.53h-.29V30h.66v6.36h-.55l-4.39-5.52h.29v5.52Zm10.19.06a3.66,3.66,0,0,1-1.35-.24,3.49,3.49,0,0,1-1.06-.68,2.92,2.92,0,0,1-.7-1,3.49,3.49,0,0,1,0-2.58,3.09,3.09,0,0,1,.71-1,3.28,3.28,0,0,1,1.06-.67,4,4,0,0,1,2.67,0,2.57,2.57,0,0,1,1,.69l-.42.43a2.23,2.23,0,0,0-.88-.57,3.09,3.09,0,0,0-1-.17,2.74,2.74,0,0,0-1.09.2,2.53,2.53,0,0,0-.86.55,2.84,2.84,0,0,0-.57.84,2.57,2.57,0,0,0,0,2,2.84,2.84,0,0,0,.57.84,2.72,2.72,0,0,0,.86.56,3.13,3.13,0,0,0,1.09.19,3.09,3.09,0,0,0,1-.17,2.26,2.26,0,0,0,.9-.55l.38.51a3.12,3.12,0,0,1-1.06.61,4.14,4.14,0,0,1-1.3.23Zm1.69-.89V33.18H141v2.43Z"/><path class="cls-7" d="M0,2.27A2.27,2.27,0,0,1,2.27,0H94.32V50h-92A2.28,2.28,0,0,1,0,47.78Z"/><path class="cls-1" d="M21.19,24.9h2.69a3.43,3.43,0,0,1,3.66,3.18,1.34,1.34,0,0,1,0,.2h0a3.41,3.41,0,0,1-3.43,3.39H21.19V24.9m2.69,5.41A1.93,1.93,0,0,0,26,28.53v-.22h0a2,2,0,0,0-2-2H22.73v4.06h1.15"/><path class="cls-1" d="M28.86,24.9h5.22v1.31H30.41v1.38h3.24V28.9H30.41v1.41h3.73v1.31H28.9V24.9"/><path class="cls-1" d="M35,30.67l.91-1.05a3.35,3.35,0,0,0,2.07.82c.62,0,1-.26,1-.62h0c0-.4-.26-.59-1.37-.86-1.38-.36-2.3-.72-2.3-2.06h0c0-1.22,1-2,2.43-2a4,4,0,0,1,2.55.86l-.78,1.14a3.12,3.12,0,0,0-1.81-.65c-.59,0-.88.26-.88.59h0c0,.43.29.6,1.47.89,1.41.36,2.17.85,2.17,2h0c0,1.35-1,2.1-2.53,2.1a4.51,4.51,0,0,1-2.91-1"/><path class="cls-1" d="M41.82,24.9h1.5v6.76h-1.5V24.9"/><path class="cls-1" d="M44.77,28.28a3.49,3.49,0,0,1,3.47-3.51h.13a3.69,3.69,0,0,1,2.69.95l-1,1.15a2.5,2.5,0,0,0-1.8-.69,2,2,0,0,0-2,2v.1h0a2.06,2.06,0,0,0,1.93,2.17h.17A2.33,2.33,0,0,0,49.8,30V29.1H48.34V27.82h3v2.92a4.52,4.52,0,0,1-3,1.08,3.51,3.51,0,0,1-3.6-3.4v-.14"/><path class="cls-1" d="M52.77,24.9h1.41L57.39,29V24.9h1.47v6.76H57.59l-3.35-4.3v4.3H52.77Z"/><path class="cls-8" d="M60.54,24.9h3.14a2.81,2.81,0,0,1,2,.69,2.06,2.06,0,0,1,.59,1.54h0a2.11,2.11,0,0,1-1.47,2.1l1.67,2.4H64.7l-1.47-2.17H62v2.17H60.47V24.9h.07m3.05,3.25c.75,0,1.14-.4,1.14-.95h0c0-.62-.42-.95-1.18-.95h-1.5v1.94h1.54"/><path class="cls-9" d="M67.55,28.74V24.87h1.51v3.8c0,1.12.56,1.64,1.48,1.64S72,29.75,72,28.67V24.84h1.51v3.8a2.76,2.76,0,0,1-2.44,3.05,2.62,2.62,0,0,1-.56,0,2.67,2.67,0,0,1-3-2.29,2.81,2.81,0,0,1,0-.71"/><path class="cls-10" d="M74.6,30.67l.92-1.05a3.24,3.24,0,0,0,2.07.82c.62,0,1-.26,1-.62h0c0-.4-.26-.59-1.38-.86-1.37-.36-2.29-.72-2.29-2.06h0a2.15,2.15,0,0,1,2.26-2l.16,0a4,4,0,0,1,2.56.86l-.79,1.14a3.19,3.19,0,0,0-1.8-.65c-.59,0-.88.26-.88.59h0c0,.43.29.6,1.47.89,1.41.36,2.17.85,2.17,2h0c0,1.35-1,2.1-2.53,2.1a4.62,4.62,0,0,1-2.92-1"/><path class="cls-11" d="M81.36,24.9h1.5v2.69h2.79V24.9h1.51v6.76H85.65V29H82.86v2.69h-1.5V24.9"/><path class="cls-12" d="M12.54,28.7h0l-.17-.09h0l-3.9-2.79h0l-.07-.07H8.27L7.16,24.9l2.2.33a.48.48,0,0,1,.23.07h.09a.54.54,0,0,1,.2.1l.17.09s.09.07.09.1.07,0,.1.07.1.06.1.1a3.19,3.19,0,0,0,.26.26l1.74,2.46h0l.17.16"/><path class="cls-13" d="M12.54,32.51l-.17-.26h0L7.19,24.9l1.12.79.19.13,3.87,2.75h0l.13.1h0l.16-.13L18,24.9l-5.3,7.35h0l-.13.23"/><path class="cls-12" d="M12.54,27.46l-.17-.26h0l-1.28-1.77,1.28.27h.33L14,25.4,12.7,27.2h0l-.16.23"/><path class="cls-12" d="M18,24.87l-1.64.23-.62.1a1.78,1.78,0,0,0-1.25.75l-1.74,2.49h0l-.16.22.19-.19h0l-.23.22L17,25.56l1-.69"/><path class="cls-14" d="M13.36,19.69c0,1.44-2.5,2.2-2.5,3.74a2,2,0,0,0,.23,1.05,3.18,3.18,0,0,1-.95-1.91,6.23,6.23,0,0,1,.92-2.46c0,.66.26.86.53.89h0c.29,0,.46-.23.46-.56s-.36-.65-.36-1.31a4,4,0,0,1,.78-1.64,3.39,3.39,0,0,1,.86,2.2"/><path class="cls-14" d="M12.67,24.93a1.36,1.36,0,0,1-1.38-1.34v0h0c0-1.67,2.33-1.83,2.33-4.09a3.62,3.62,0,0,1,.69,1.87c0,1.14-1.08,1.44-1.08,2,0,.22.09.39.42.39h.1a1.77,1.77,0,0,0,1.08-1.55S15.16,25,12.67,25"/><path class="cls-12" d="M13.68,23.69h.1c-.32.09-1.54.39-1.54-.46,0-1.05,1.81-1.28,1.81-2.17a3.22,3.22,0,0,0-.43-1.6,3.62,3.62,0,0,1,.69,1.87c0,1.14-1.08,1.44-1.08,2a.41.41,0,0,0,.43.39h0"/><path class="cls-12" d="M12.7,20.28c0,.82-1,.75-1.11.72h.09c.3,0,.46-.23.46-.56s-.36-.65-.36-1.31a3.91,3.91,0,0,1,.79-1.64,3.06,3.06,0,0,0-.43,1.35c0,.75.56.82.56,1.44"/><text class="cls-15" transform="translate(152.39 36.5)"><tspan class="cls-16">4</tspan><tspan x="8.15" y="0">.9</tspan></text></svg>