<svg xmlns="http://www.w3.org/2000/svg" viewBox="0 0 188.64 50"><defs><style>.cls-1{fill:#fff;}.cls-2{fill:#4383ff;}.cls-3{fill:#3a7af3;}</style></defs><rect class="cls-1" width="188.64" height="50" rx="2.27"/><path class="cls-2" d="M0,2.27A2.27,2.27,0,0,1,2.27,0H94.32V50h-92A2.28,2.28,0,0,1,0,47.78Z"/><path class="cls-1" d="M17.81,22.9s-.56-.06-.56.44v2.24H21v.67a.32.32,0,0,1-.3.34H17.25v2.9h4.07a3,3,0,0,0,2.48-2.9V22.9Zm5.87-3.58H16.32a3.15,3.15,0,0,0-2.71,2.8v7.37h2.82V22.78a.69.69,0,0,1,.56-.67h6.66Zm9.64,8.07-.44.28a9.64,9.64,0,0,1-1,.54,3.35,3.35,0,0,1-1.25.28,4.46,4.46,0,0,1-3.17-1.17,3.87,3.87,0,0,1-1.27-3,4.33,4.33,0,0,1,1.14-3,3.64,3.64,0,0,1,2.79-1.26,4.5,4.5,0,0,1,1.45.24,4,4,0,0,1,1.6.92l-.73.81a2.67,2.67,0,0,0-1.12-.61,3.82,3.82,0,0,0-1.16-.16,2.39,2.39,0,0,0-1.93.93,3.37,3.37,0,0,0-.77,2.22,2.8,2.8,0,0,0,.86,2.11,3.14,3.14,0,0,0,2.24.85A2.3,2.3,0,0,0,31.7,27l.5-.38V24.86H29.74l.36-1.1h3.22Zm7.42-2.16a3.09,3.09,0,0,1-.91,2.22,3,3,0,0,1-2.24.94,3.19,3.19,0,0,1-3.1-3.15A3.28,3.28,0,0,1,35.41,23a2.82,2.82,0,0,1,2.17-1,3.11,3.11,0,0,1,3.2,3v.17Zm-1.15,0A2,2,0,0,0,39,23.77a1.9,1.9,0,0,0-1.44-.61,1.79,1.79,0,0,0-1.37.62,2.07,2.07,0,0,0-.57,1.43,2,2,0,0,0,.58,1.43,1.91,1.91,0,0,0,2.7.09h0l.09-.09a1.89,1.89,0,0,0,.63-1.41Zm8.47,0a3.09,3.09,0,0,1-.91,2.22,3,3,0,0,1-2.24.94,3.16,3.16,0,0,1-3.1-3.22h0A3.11,3.11,0,0,1,42.73,23a2.82,2.82,0,0,1,2.17-1,3.11,3.11,0,0,1,3.2,3v.17Zm-1.15,0a2,2,0,0,0-.58-1.46,1.9,1.9,0,0,0-1.44-.61,1.79,1.79,0,0,0-1.37.62A2.07,2.07,0,0,0,43,25.21a2,2,0,0,0,.58,1.43,1.91,1.91,0,0,0,2.7.09h0l.09-.09a2,2,0,0,0,.63-1.4Zm7.92,3-1.06.17v-1l-.22.26a2.66,2.66,0,0,1-.68.47,2.83,2.83,0,0,1-1.15.25,2.8,2.8,0,0,1-2.1-.92,3.11,3.11,0,0,1-.86-2.18A3.25,3.25,0,0,1,49.65,23a2.7,2.7,0,0,1,2.08-.93A3.08,3.08,0,0,1,53,22.3a2.3,2.3,0,0,1,.63.44c.06.08.11.17.17.24V20.27l1.13-.17Zm-1-2.91a2.06,2.06,0,0,0-.51-1.54,1.89,1.89,0,0,0-1.41-.63,1.81,1.81,0,0,0-1.42.59A2,2,0,0,0,50,25.13a2.21,2.21,0,0,0,.53,1.52,1.72,1.72,0,0,0,1.34.6,2.11,2.11,0,0,0,1.43-.56,1.76,1.76,0,0,0,.6-1.39Zm6.94-3.91h-3.1v2.15h2.44v1.11H57.67v3.56l-1.23.18V20.28h4.14Zm2.55-.65-.75,1-.73-1,.77-1Zm-.22,7.45-1.1.16v-6l1.13-.17Zm5.09-6.08-.53,1.23h-.54a1.52,1.52,0,0,0-.36.12,1.42,1.42,0,0,0-.61.67,2.51,2.51,0,0,0-.29,1.23V28.2l-1.13.18v-6l1-.19v1.25c.14-.22.28-.43.41-.66a1.8,1.8,0,0,1,.68-.48,2.75,2.75,0,0,1,.75-.13h.65Zm8.39,6.08-1.13.17V24.26a1,1,0,0,0-1.84-.68l-.06.08a1.47,1.47,0,0,0-.21.71v3.84l-1.12.2V24.28a1.21,1.21,0,0,0-.25-.82.85.85,0,0,0-.67-.29h-.08a.91.91,0,0,0-.86.5,2,2,0,0,0-.2,1v3.58l-1.17.2v-6l1-.18V23a2.51,2.51,0,0,1,.35-.44,1.51,1.51,0,0,1,1-.42,1.44,1.44,0,0,1,1.56.92,1.85,1.85,0,0,1,1.66-.92,1.83,1.83,0,0,1,1.54.66,2.55,2.55,0,0,1,.41,1.59Zm5.15-1.82a1.78,1.78,0,0,1-.58,1.37,2.06,2.06,0,0,1-1.46.53A2.32,2.32,0,0,1,78.51,28a2.22,2.22,0,0,1-.8-.72l.79-.7a1.56,1.56,0,0,0,.16.2,1.39,1.39,0,0,0,1.06.46,1,1,0,0,0,.67-.22.77.77,0,0,0,.24-.63c0-.3-.19-.5-.58-.62q-1.14-.35-1.23-.39a2.09,2.09,0,0,1-.77-.58,1.85,1.85,0,0,1,.3-2.3,1.9,1.9,0,0,1,1.36-.5,2.35,2.35,0,0,1,1.1.27,1.73,1.73,0,0,1,.72.59l-.67.74a2.22,2.22,0,0,0-.33-.28,1.34,1.34,0,0,0-.77-.28,1,1,0,0,0-.58.15.67.67,0,0,0-.27.57.59.59,0,0,0,.26.54,3.87,3.87,0,0,0,1,.31,2.39,2.39,0,0,1,1.15.59,1.56,1.56,0,0,1,.44,1.19Z"/><path class="cls-3" d="M111.24,11.93,113,15.34l3.41.43L114,18.39l.64,3.77-3.41-1.71-3.41,1.71.64-3.77-2.34-2.62,3.41-.43Z"/><path class="cls-3" d="M124.88,11.93l1.7,3.41,3.41.43-2.34,2.62.64,3.77-3.41-1.71-3.41,1.71.64-3.77-2.35-2.62,3.41-.43Z"/><path class="cls-3" d="M138.51,11.93l1.71,3.41,3.41.43-2.31,2.62.63,3.77-3.41-1.71-3.4,1.71.64-3.77-2.35-2.62,3.41-.43Z"/><path class="cls-3" d="M152.15,11.93l1.71,3.41,3.4.43-2.34,2.62.64,3.77-3.41-1.71-3.41,1.71.64-3.77L147,15.77l3.41-.43Z"/><path class="cls-3" d="M165.79,11.93l1.7,3.41,3.41.43-2.34,2.62.64,3.77-3.41-1.71-3.41,1.71.64-3.77-2.35-2.62,3.41-.43Z"/><path d="M156.43,36.5a6.06,6.06,0,0,1-1.64-.22,4.38,4.38,0,0,1-1.39-.63l.73-1.41a3.81,3.81,0,0,0,1,.52,3.89,3.89,0,0,0,1.22.19,1.91,1.91,0,0,0,1.09-.27.87.87,0,0,0,.4-.76,1,1,0,0,0-.16-.54,1,1,0,0,0-.57-.37,4.23,4.23,0,0,0-1.12-.12h-2l.41-4.48h4.85v1.48h-4.19l.95-.84-.28,3.19-.95-.84h1.68a4.73,4.73,0,0,1,1.9.33,2.28,2.28,0,0,1,1,.87,2.42,2.42,0,0,1,.33,1.26,2.53,2.53,0,0,1-1.44,2.31A4.39,4.39,0,0,1,156.43,36.5Zm10.3,0a3.18,3.18,0,0,1-3-1.89,5.82,5.82,0,0,1,0-4.45,3.31,3.31,0,0,1,1.22-1.4,3.25,3.25,0,0,1,4.48,1,3.55,3.55,0,0,1,.23.43,5.73,5.73,0,0,1,0,4.45,3.14,3.14,0,0,1-3,1.89Zm0-1.56a1.22,1.22,0,0,0,.8-.26,1.57,1.57,0,0,0,.55-.83,5.4,5.4,0,0,0,0-2.93,1.57,1.57,0,0,0-.55-.83,1.28,1.28,0,0,0-.8-.26,1.39,1.39,0,0,0-.81.26,1.79,1.79,0,0,0-.55.83,5.82,5.82,0,0,0,0,2.93,1.79,1.79,0,0,0,.55.83A1.25,1.25,0,0,0,166.73,34.94Z"/><path d="M107.73,36.36V30h2.38a3.47,3.47,0,0,1,1.39.26,2,2,0,0,1,.9.75,2.1,2.1,0,0,1,.31,1.17,2.18,2.18,0,0,1-.31,1.17,2,2,0,0,1-.9.74,3.47,3.47,0,0,1-1.39.26h-2l.3-.31v2.32Zm4.35,0-1.64-2.31h.73l1.64,2.31Zm-3.68-2.27-.3-.32h2a2.11,2.11,0,0,0,1.44-.42,1.44,1.44,0,0,0,.5-1.17,1.48,1.48,0,0,0-.5-1.18,2.11,2.11,0,0,0-1.44-.42h-2l.3-.32Zm4.92,2.27L116.19,30h.67l2.91,6.36h-.71l-2.68-6h.28l-2.68,6Zm1.15-1.7.2-.54h3.65l.2.54Zm7.3,1.7V30.58h-2.23V30h5.14v.58h-2.23v5.78Zm4,0V30h.67v6.36Zm2.74,0V30h.56l4.39,5.53h-.29V30h.66v6.36h-.55l-4.39-5.52h.29v5.52Zm10.19.06a3.66,3.66,0,0,1-1.35-.24,3.49,3.49,0,0,1-1.06-.68,2.92,2.92,0,0,1-.7-1,3.49,3.49,0,0,1,0-2.58,3.09,3.09,0,0,1,.71-1,3.28,3.28,0,0,1,1.06-.67,4,4,0,0,1,2.67,0,2.57,2.57,0,0,1,1,.69l-.42.43a2.23,2.23,0,0,0-.88-.57,3.09,3.09,0,0,0-1-.17,2.74,2.74,0,0,0-1.09.2,2.53,2.53,0,0,0-.86.55,2.84,2.84,0,0,0-.57.84,2.57,2.57,0,0,0,0,2,2.84,2.84,0,0,0,.57.84,2.72,2.72,0,0,0,.86.56,3.13,3.13,0,0,0,1.09.19,3.09,3.09,0,0,0,1-.17,2.26,2.26,0,0,0,.9-.55l.38.51a3.12,3.12,0,0,1-1.06.61,4.14,4.14,0,0,1-1.3.23Zm1.69-.89V33.18H141v2.43Z"/><circle cx="161.54" cy="35.33" r="1.1"/></svg>