<svg xmlns="http://www.w3.org/2000/svg" viewBox="0 0 188.64 50"><defs><style>.cls-1{fill:#fff;}.cls-2{fill:#004256;}.cls-3{fill:#fbbc05;}.cls-4{fill:#4285f4;}.cls-5{fill:#34a853;}.cls-6{fill:#ea4335;}</style></defs><rect class="cls-1" width="188.64" height="50" rx="2.27"/><path class="cls-2" d="M0,2.27A2.27,2.27,0,0,1,2.27,0H94.32V50h-92A2.28,2.28,0,0,1,0,47.78Z"/><path class="cls-3" d="M111.24,11.93,113,15.34l3.41.43L114,18.39l.64,3.77-3.41-1.71-3.41,1.71.64-3.77-2.34-2.62,3.41-.43Z"/><path class="cls-3" d="M124.88,11.93l1.7,3.41,3.41.43-2.34,2.62.64,3.77-3.41-1.71-3.41,1.71.64-3.77-2.35-2.62,3.41-.43Z"/><path class="cls-3" d="M138.51,11.93l1.71,3.41,3.41.43-2.31,2.62.63,3.77-3.41-1.71-3.4,1.71.64-3.77-2.35-2.62,3.41-.43Z"/><path class="cls-3" d="M152.15,11.93l1.71,3.41,3.4.43-2.34,2.62.64,3.77-3.41-1.71-3.41,1.71.64-3.77L147,15.77l3.41-.43Z"/><path class="cls-3" d="M165.79,11.93l1.7,3.41,3.41.43-2.34,2.62.64,3.77-3.41-1.71-3.41,1.71.64-3.77-2.35-2.62,3.41-.43Z"/><path d="M107.73,36.36V30h2.38a3.47,3.47,0,0,1,1.39.26,2,2,0,0,1,.9.75,2.1,2.1,0,0,1,.31,1.17,2.18,2.18,0,0,1-.31,1.17,2,2,0,0,1-.9.74,3.47,3.47,0,0,1-1.39.26h-2l.3-.31v2.32Zm4.35,0-1.64-2.31h.73l1.64,2.31Zm-3.68-2.27-.3-.32h2a2.11,2.11,0,0,0,1.44-.42,1.44,1.44,0,0,0,.5-1.17,1.48,1.48,0,0,0-.5-1.18,2.11,2.11,0,0,0-1.44-.42h-2l.3-.32Zm4.92,2.27L116.19,30h.67l2.91,6.36h-.71l-2.68-6h.28l-2.68,6Zm1.15-1.7.2-.54h3.65l.2.54Zm7.3,1.7V30.58h-2.23V30h5.14v.58h-2.23v5.78Zm4,0V30h.67v6.36Zm2.74,0V30h.56l4.39,5.53h-.29V30h.66v6.36h-.55l-4.39-5.52h.29v5.52Zm10.19.06a3.66,3.66,0,0,1-1.35-.24,3.49,3.49,0,0,1-1.06-.68,2.92,2.92,0,0,1-.7-1,3.49,3.49,0,0,1,0-2.58,3.09,3.09,0,0,1,.71-1,3.28,3.28,0,0,1,1.06-.67,4,4,0,0,1,2.67,0,2.57,2.57,0,0,1,1,.69l-.42.43a2.23,2.23,0,0,0-.88-.57,3.09,3.09,0,0,0-1-.17,2.74,2.74,0,0,0-1.09.2,2.53,2.53,0,0,0-.86.55,2.84,2.84,0,0,0-.57.84,2.57,2.57,0,0,0,0,2,2.84,2.84,0,0,0,.57.84,2.72,2.72,0,0,0,.86.56,3.13,3.13,0,0,0,1.09.19,3.09,3.09,0,0,0,1-.17,2.26,2.26,0,0,0,.9-.55l.38.51a3.12,3.12,0,0,1-1.06.61,4.14,4.14,0,0,1-1.3.23Zm1.69-.89V33.18H141v2.43Z"/><path class="cls-4" d="M29.52,25.14A7.3,7.3,0,0,0,29.43,24H23.62v2.32h3.32a2.85,2.85,0,0,1-1.23,1.83V29.7h2A6,6,0,0,0,29.52,25.14Z"/><path class="cls-5" d="M23.62,31.16a5.86,5.86,0,0,0,4.07-1.49l-2-1.54a3.71,3.71,0,0,1-5.13-1.08,4,4,0,0,1-.41-.86h-2v1.58A6.13,6.13,0,0,0,23.62,31.16Z"/><path class="cls-3" d="M20.16,26.18A3.91,3.91,0,0,1,20,25a3.66,3.66,0,0,1,.2-1.18V22.24H18.12a6.1,6.1,0,0,0,0,5.52Z"/><path class="cls-6" d="M23.62,21.28A3.35,3.35,0,0,1,26,22.2l1.76-1.75a5.85,5.85,0,0,0-4.12-1.61,6.13,6.13,0,0,0-5.5,3.4l2.05,1.58A3.66,3.66,0,0,1,23.62,21.28Z"/><path class="cls-1" d="M32.06,29.34H31v-8.6h3a2.67,2.67,0,0,1,1.9.74,2.46,2.46,0,0,1,.21,3.4,2.59,2.59,0,0,1-1.48.89h0l2.43,3.5H35.62l-2.35-3.5H32.06Zm0-7.55v3h1.78A1.69,1.69,0,0,0,35,24.4a1.44,1.44,0,0,0,.45-1.09,1.52,1.52,0,0,0-1.54-1.5h0Zm8.18,7.74a2.79,2.79,0,0,1-2.14-.89,3.47,3.47,0,0,1,0-4.49,2.71,2.71,0,0,1,2.08-.9,2.66,2.66,0,0,1,2.11.84A3.35,3.35,0,0,1,43,26.47v.11H38.39A1.92,1.92,0,0,0,41.62,28h0a1.82,1.82,0,0,0,.36-.51L43,28a2.88,2.88,0,0,1-1.1,1.17,3.05,3.05,0,0,1-1.59.42Zm-1.76-3.84h3.37a1.44,1.44,0,0,0-.51-1,1.7,1.7,0,0,0-1.2-.42,1.58,1.58,0,0,0-1.08.39,1.82,1.82,0,0,0-.6,1Zm8.29,3.65H45.66l-2.38-5.9h1.2L46.22,28,48,23.44h1.19Zm4.56-7.93a.79.79,0,0,1-1.57.18.54.54,0,0,1,0-.18.79.79,0,0,1,1.57,0Zm-.23,2v5.9H50v-5.9Zm4,6.09a2.81,2.81,0,0,1-2.1-.86,3.44,3.44,0,0,1,0-4.49,3,3,0,0,1,4.16-.09h0A2.6,2.6,0,0,1,58,25.94v.63H53.31a1.89,1.89,0,0,0,.58,1.4,1.85,1.85,0,0,0,2.63,0h0a1.66,1.66,0,0,0,.34-.49l1,.48a3,3,0,0,1-1.11,1.17,3,3,0,0,1-1.59.42Zm-1.77-3.85H56.7a1.39,1.39,0,0,0-.5-1,1.75,1.75,0,0,0-1.2-.41,1.6,1.6,0,0,0-1,.39,1.77,1.77,0,0,0-.6,1Zm13.79-2.24-1.89,5.9H64.12l-1.47-4.52L61.2,29.34H60.1l-1.91-5.9h1.16l1.31,4.46h0l1.45-4.45h1.17l1.46,4.45h0L66,23.45Zm5.24,4.26a1.58,1.58,0,0,1-.68,1.3,2.92,2.92,0,0,1-3.25.06,2.6,2.6,0,0,1-1-1.22l1-.42a1.89,1.89,0,0,0,.63.82,1.56,1.56,0,0,0,.91.29,1.65,1.65,0,0,0,.89-.23.64.64,0,0,0,.33-.54c0-.38-.29-.66-.84-.85l-1-.25c-1.15-.28-1.72-.83-1.72-1.66a1.54,1.54,0,0,1,.66-1.29,3,3,0,0,1,3.09-.11,2,2,0,0,1,.88,1l-1,.42a1.21,1.21,0,0,0-.55-.59,1.77,1.77,0,0,0-.84-.21,1.42,1.42,0,0,0-.78.22.62.62,0,0,0-.34.53c0,.34.32.58,1,.72l.89.21c1.19.3,1.78.9,1.77,1.79Z"/><path d="M160,34.84h-1.31v1.69h-1.82V34.84h-4.33V33.59l3.79-5.11h2l-3.52,4.84h2.16v-1.5h1.76v1.5H160Z"/><path d="M161,36.3a1.06,1.06,0,0,1-.33-.8,1,1,0,0,1,.33-.8,1.16,1.16,0,0,1,1.58,0,1,1,0,0,1,.33.8,1.06,1.06,0,0,1-.33.8,1.14,1.14,0,0,1-1.58,0Z"/><path d="M170.28,33.08a2,2,0,0,1,.32,1.12,2,2,0,0,1-.43,1.3,2.7,2.7,0,0,1-1.19.87,4.92,4.92,0,0,1-1.78.3,4.84,4.84,0,0,1-1.78-.3,2.7,2.7,0,0,1-1.19-.87,2.09,2.09,0,0,1-.42-1.3,2,2,0,0,1,.32-1.12,2.3,2.3,0,0,1,.9-.78,1.93,1.93,0,0,1-.69-.7,1.87,1.87,0,0,1-.24-1,2,2,0,0,1,.39-1.22,2.46,2.46,0,0,1,1.1-.79,4.21,4.21,0,0,1,1.61-.29,4.29,4.29,0,0,1,1.62.29,2.46,2.46,0,0,1,1.1.79,2,2,0,0,1,.39,1.22,1.85,1.85,0,0,1-.94,1.66A2.27,2.27,0,0,1,170.28,33.08Zm-2,1.91a1,1,0,0,0,.4-.85,1,1,0,0,0-.4-.84A1.8,1.8,0,0,0,167.2,33a1.75,1.75,0,0,0-1.1.31,1.09,1.09,0,0,0,0,1.69,1.75,1.75,0,0,0,1.1.31A1.8,1.8,0,0,0,168.31,35Zm-2-5a.92.92,0,0,0-.34.74.87.87,0,0,0,.34.73,1.39,1.39,0,0,0,.91.26,1.46,1.46,0,0,0,.92-.26.87.87,0,0,0,.34-.73.89.89,0,0,0-.34-.74,1.46,1.46,0,0,0-.92-.27A1.43,1.43,0,0,0,166.29,30Z"/></svg>