<svg xmlns="http://www.w3.org/2000/svg" viewBox="0 0 179 57" fill="#fbbc05"><path fill="#4285f4" d="M56,29.25a31.68,31.68,0,0,0-.44-5.41H28.61V34.61H44a13.34,13.34,0,0,1-5.72,8.5V50.3H47.5C52.86,45.3,56,38,56,29.25Z"/><path fill="#34a853" d="M28.61,57.22c7.72,0,14.18-2.57,18.9-6.94l-9.2-7.16a17.21,17.21,0,0,1-25.74-9H3.08v7.36A28.5,28.5,0,0,0,28.61,57.22Z"/><path d="M12.56,34.07a16.62,16.62,0,0,1-.89-5.46,17.17,17.17,0,0,1,.9-5.46V15.79H3.08a28.26,28.26,0,0,0,0,25.64Z"/><path fill="#ea4335" d="M28.61,11.33a15.47,15.47,0,0,1,11,4.29l8.15-8.15A27.3,27.3,0,0,0,28.65,0,28.57,28.57,0,0,0,3.12,15.78l9.49,7.37A17.06,17.06,0,0,1,28.61,11.33Z"/><path fill="#6f7073" d="M75,50H72.37V29.61h7a6.32,6.32,0,0,1,4.52,1.75,5.86,5.86,0,0,1,.49,8.07,6.12,6.12,0,0,1-3.51,2.09l-.06.09,5.74,8.3V50H83.44l-5.58-8.31H75Zm0-17.91v7.19h4.22a3.86,3.86,0,0,0,2.71-1A3.41,3.41,0,0,0,83,35.7a3.61,3.61,0,0,0-3.65-3.56ZM94.39,50.45a6.67,6.67,0,0,1-5.08-2.11,8.21,8.21,0,0,1,0-10.65,6.46,6.46,0,0,1,4.94-2.14,6.33,6.33,0,0,1,5,2A8,8,0,0,1,101,43.18v.27H90a4.5,4.5,0,0,0,1.37,3.31,4.39,4.39,0,0,0,6.22,0,4.28,4.28,0,0,0,.84-1.19l2.33,1.15a6.82,6.82,0,0,1-2.61,2.77,7.13,7.13,0,0,1-3.77,1ZM90.2,41.33h8A3.46,3.46,0,0,0,97,38.92a4.09,4.09,0,0,0-2.86-1,3.86,3.86,0,0,0-2.55.93,4.24,4.24,0,0,0-1.42,2.44ZM109.86,50h-2.62l-5.65-14h2.85l4.11,10.84L112.72,36h2.8Zm10.81-18.8a1.86,1.86,0,1,1-.55-1.31,1.82,1.82,0,0,1,.55,1.3ZM120.12,36V50H117.5V36Zm9.56,14.45a6.67,6.67,0,0,1-5.08-2.11,8.2,8.2,0,0,1,0-10.65,7,7,0,0,1,9.94-.16,8,8,0,0,1,1.84,5.63v.27h-11a4.53,4.53,0,0,0,1.36,3.31,4.42,4.42,0,0,0,6.26-.08,4.28,4.28,0,0,0,.82-1.16l2.35,1.12a7,7,0,0,1-2.61,2.78,7.16,7.16,0,0,1-3.78,1Zm-4.2-9.13h8a3.49,3.49,0,0,0-1.18-2.41,4.22,4.22,0,0,0-2.87-1,3.74,3.74,0,0,0-2.5.91,4.32,4.32,0,0,0-1.41,2.42ZM158.19,36l-4.5,14H151l-3.48-10.72L144.08,50h-2.62l-4.52-14h2.74l3.11,10.57h0l3.45-10.55H149l3.46,10.55h0l3.08-10.55ZM170.6,46.11a3.77,3.77,0,0,1-1.6,3.08,6.92,6.92,0,0,1-7.72.14A6,6,0,0,1,159,46.44l2.34-1a4.28,4.28,0,0,0,1.5,1.94,3.61,3.61,0,0,0,2.15.7,3.79,3.79,0,0,0,2.1-.56,1.55,1.55,0,0,0,.8-1.28c0-.89-.69-1.55-2-2l-2.4-.6q-4.08-1-4.08-3.93a3.65,3.65,0,0,1,1.56-3.06,7.17,7.17,0,0,1,7.33-.27,4.8,4.8,0,0,1,2.09,2.37l-2.34,1a3,3,0,0,0-1.3-1.39,4,4,0,0,0-2-.5,3.41,3.41,0,0,0-1.84.51,1.46,1.46,0,0,0-.81,1.26q0,1.2,2.25,1.71l2.11.5q4.22,1.07,4.2,4.23Z"/><path d="M77.86,1.81,80.2,9h7.56l-6.11,4.45L84,20.61l-6.14-4.4-6.1,4.4,2.35-7.19L68,9h7.57ZM98.21,9H90.64l6.13,4.45-2.34,7.2,6.13-4.44,6.12,4.44-2.34-7.2L110.47,9h-7.61l-2.33-7.2Zm22.7,0h-7.57l6.12,4.45-2.33,7.15,6.13-4.44,6.13,4.44-2.34-7.19L133.17,9H125.6l-2.34-7.2ZM143.6,9H136l6.13,4.45-2.3,7.15L146,16.17l6.1,4.44-2.34-7.19L155.86,9H148.3L146,1.81Zm22.7,0h-7.57l6.13,4.45-2.34,7.15,6.13-4.44,6.12,4.44-2.33-7.19L178.56,9H171l-2.34-7.2Z"/></svg>