<svg xmlns="http://www.w3.org/2000/svg" viewBox="0 0 640 480" fill="#008"><path fill="#f93" d="M0,0H640V160H0Z"/><path fill="#fff" d="M0,160H640V320H0Z"/><path fill="#128807" d="M0,320H640V480H0Z"/><circle cx="320" cy="240" r="64"/><circle fill="#fff" cx="320" cy="240" r="56"/><circle cx="320" cy="240" r="11"/><circle cx="375" cy="247" r="3"/><path d="M320,296l2-34-2-16-2,16Z"/><circle cx="372" cy="261" r="3"/><path d="M306,294l11-32,2-16-6,15Z"/><circle cx="364" cy="274" r="3"/><path d="M292,289l18-28,6-15-10,13Z"/><circle cx="354" cy="284" r="3"/><path d="M280,280l25-22,10-13-13,10Z"/><circle cx="341" cy="292" r="3"/><path d="M271,268l30-15,13-10-15,6Z"/><circle cx="327" cy="295" r="3"/><path d="M266,255l33-7,15-6-16,2Z"/><circle cx="313" cy="295" r="3"/><path d="M264,240l34,2,16-2-16-2Z"/><circle cx="299" cy="292" r="3"/><path d="M266,226l32,11,16,2-15-6Z"/><circle cx="286" cy="284" r="3"/><path d="M271,212l28,18,15,6-13-10Z"/><circle cx="276" cy="274" r="3"/><path d="M280,200l22,25,13,10-10-13Z"/><circle cx="268" cy="261" r="3"/><path d="M292,191l15,30,10,13-6-15Z"/><circle cx="265" cy="247" r="3"/><path d="M306,186l7,33,6,15-2-16Z"/><circle cx="265" cy="233" r="3"/><path d="M320,184l-2,34,2,16,2-16Z"/><circle cx="268" cy="219" r="3"/><path d="M335,186l-11,32-2,16,6-15Z"/><circle cx="276" cy="206" r="3"/><path d="M348,191l-18,28-6,15,10-13Z"/><circle cx="286" cy="196" r="3"/><path d="M360,200l-25,22-10,13,13-10Z"/><circle cx="299" cy="188" r="3"/><path d="M369,212l-30,15-13,10,15-6Z"/><circle cx="313" cy="185" r="3"/><path d="M374,226l-33,7-15,6,16-2Z"/><circle cx="327" cy="185" r="3"/><path d="M376,240l-34-2-16,2,16,2Z"/><circle cx="341" cy="188" r="3"/><path d="M374,255l-32-11-16-2,15,6Z"/><circle cx="354" cy="196" r="3"/><path d="M369,268l-28-18-15-6,13,10Z"/><circle cx="364" cy="206" r="3"/><path d="M360,280l-22-25-13-10,10,13Z"/><circle cx="372" cy="219" r="3"/><path d="M348,289l-15-30-10-13,6,15Z"/><circle cx="375" cy="233" r="3"/><path d="M335,294l-7-33-6-15,2,16Z"/></svg>