<svg xmlns="http://www.w3.org/2000/svg" viewBox="0 0 605 668"><polygon points="605 225 605 225 605 224 603 224 604 223 604 222 604 221 605 221 603 219 600 219 599 217 597 218 595 218 595 217 594 217 592 217 592 216 590 215 588 215 587 216 585 216 585 217 584 218 584 216 583 217 581 216 584 214 583 213 583 212 584 212 584 212 585 212 586 211 586 209 588 209 589 207 587 205 587 203 586 203 586 202 587 200 585 201 583 201 581 203 579 204 579 203 580 202 579 201 578 200 580 200 581 198 583 198 584 196 583 195 582 196 581 196 580 195 580 194 579 193 578 191 575 193 573 193 572 194 571 193 568 196 567 196 567 197 566 197 566 199 565 198 565 200 564 201 564 201 561 200 560 199 558 199 557 198 555 198 555 199 552 197 551 198 550 196 549 194 547 193 546 196 543 196 542 197 541 198 540 198 539 200 537 203 534 206 534 207 534 207 532 210 531 209 529 210 528 209 526 210 524 210 523 209 523 210 522 210 520 210 520 211 519 211 519 212 519 214 517 215 518 216 518 218 513 219 514 220 513 220 512 220 511 221 509 222 509 221 506 223 506 224 508 226 506 228 505 229 504 230 503 229 502 230 501 230 500 231 499 231 498 229 496 229 493 231 492 231 490 233 489 232 488 230 486 230 485 229 483 229 483 230 484 230 484 230 485 231 484 233 483 234 483 235 483 236 485 238 486 238 486 238 489 238 491 239 492 238 493 240 493 242 495 243 494 243 493 243 494 244 493 246 493 248 494 249 494 252 494 253 493 253 492 253 490 251 489 251 488 253 486 254 484 254 482 254 480 253 478 255 477 254 473 254 472 255 465 255 462 254 459 252 458 252 457 253 455 253 454 254 454 255 453 255 449 256 447 256 447 256 446 256 446 256 445 256 445 256 443 255 443 256 443 256 442 256 443 255 443 255 442 255 441 254 439 254 439 253 438 253 437 252 435 254 432 254 431 253 431 252 430 252 430 251 429 251 428 251 428 250 428 249 427 250 427 247 424 246 425 245 425 244 427 243 428 242 425 240 424 236 426 234 426 230 427 229 426 228 426 227 426 226 424 224 422 224 422 223 421 223 421 223 420 224 420 225 418 225 417 226 416 226 413 227 413 226 412 227 411 227 411 227 411 229 413 229 413 230 412 230 413 231 409 238 410 239 409 240 409 241 410 241 409 244 409 245 408 247 409 247 409 249 410 249 410 249 411 250 411 251 412 251 411 252 412 253 412 255 412 258 411 260 411 260 410 263 409 264 409 264 408 264 408 264 407 263 406 261 405 263 404 262 404 263 403 263 402 263 401 264 400 264 397 263 395 263 395 265 394 264 393 264 393 263 391 263 389 262 389 259 388 259 388 260 386 261 386 261 385 262 385 262 384 263 382 262 382 263 378 261 378 260 373 258 372 258 371 259 370 258 369 259 369 258 367 257 366 258 365 259 363 260 363 259 363 259 361 258 361 254 359 252 355 255 354 254 353 255 350 255 349 254 350 253 346 253 347 252 345 251 345 251 345 250 343 250 342 249 341 250 341 249 341 249 338 248 339 247 339 244 338 241 331 240 330 239 329 239 329 238 328 238 328 237 327 237 327 237 327 238 325 239 323 239 322 239 322 240 323 240 322 241 317 238 312 238 312 239 312 239 312 240 311 241 310 242 308 239 304 239 303 238 302 238 298 238 299 236 298 234 298 232 292 233 287 229 285 229 284 228 282 227 281 229 280 229 277 226 275 226 272 224 272 223 271 222 270 222 270 222 269 223 269 222 268 222 269 222 269 221 267 219 266 217 264 217 263 216 262 215 261 215 260 215 260 214 259 214 259 214 257 213 257 212 255 212 255 210 254 211 253 209 251 210 252 212 252 213 250 211 248 211 248 209 246 208 246 208 245 208 243 206 242 206 242 204 243 202 243 202 244 202 244 199 245 199 246 199 247 198 246 197 247 197 248 194 247 194 247 192 246 192 246 191 247 191 247 190 248 189 248 189 249 188 249 188 250 186 249 186 249 184 250 182 251 183 252 181 254 179 255 179 257 178 257 177 259 175 259 174 260 172 262 172 262 172 262 172 258 170 256 168 253 166 252 167 249 165 249 165 247 164 245 164 245 162 245 161 246 161 246 160 246 159 245 159 244 158 243 159 242 157 239 156 238 154 237 154 236 153 235 154 234 154 232 155 231 154 231 152 229 152 228 150 227 150 226 149 226 148 225 147 225 146 224 145 223 143 221 142 220 144 218 145 218 147 216 145 216 144 215 143 216 142 215 141 214 141 214 141 217 138 215 136 214 136 214 135 214 135 214 134 215 129 214 129 213 126 212 126 211 125 211 123 210 123 208 123 209 122 209 120 210 118 208 117 208 116 208 116 208 115 209 114 209 115 210 114 212 114 213 113 215 112 215 114 215 115 215 117 218 120 220 120 221 119 222 120 223 117 224 116 225 116 227 117 229 114 231 114 232 112 231 110 230 109 229 107 227 104 227 103 229 100 229 99 224 99 222 98 221 96 218 94 219 93 219 91 219 90 220 89 221 88 222 87 220 85 220 83 219 82 218 80 219 79 220 78 222 78 223 77 226 78 228 79 229 78 231 76 232 72 231 70 230 68 230 67 231 66 233 66 235 66 236 65 236 63 238 62 240 61 241 61 242 58 242 57 243 55 244 53 244 50 244 49 245 48 245 46 246 45 246 43 246 42 246 40 245 38 243 37 242 36 241 34 239 32 238 32 236 33 233 32 230 32 229 31 227 30 225 28 223 28 222 30 222 32 221 33 219 32 216 31 213 31 211 33 209 34 206 34 204 36 202 40 199 40 195 40 191 42 188 42 187 40 186 37 184 35 180 34 177 34 174 34 173 32 172 30 173 28 173 26 170 24 168 24 166 22 163 20 160 18 157 16 154 14 151 12 150 10 147 7 145 4 143 1 142 1 140 1 139 2 137 2 135 3 133 1 131 0 129 0 127 0 125 1 123 2 122 3 120 4 118 4 117 6 115 5 113 4 111 4 110 5 112 6 113 8 111 9 107 9 103 8 100 8 98 9 97 12 95 15 93 17 90 19 88 21 87 23 86 25 87 27 86 28 86 30 87 31 89 31 91 30 95 30 97 32 98 34 99 36 101 38 104 38 106 39 109 39 111 39 112 41 111 42 110 43 109 45 110 46 111 47 113 48 116 49 117 51 117 53 117 55 116 58 115 59 111 59 110 59 108 61 108 63 107 64 104 64 103 66 103 68 103 70 104 73 104 75 104 78 105 79 106 82 105 84 105 85 107 87 107 88 106 89 107 92 106 94 106 97 107 99 106 101 108 102 109 103 110 105 113 105 115 106 117 107 119 109 121 110 122 111 125 111 126 110 128 110 129 108 130 108 129 111 129 112 129 114 130 117 133 116 136 118 137 117 138 117 139 118 140 118 140 119 143 120 144 122 144 123 141 127 140 126 140 127 139 127 136 128 135 127 134 127 133 128 132 129 132 130 131 130 131 130 130 130 130 131 129 131 128 132 128 132 127 133 127 135 126 135 126 136 128 139 128 140 127 141 128 141 129 142 127 146 126 147 126 150 127 150 127 151 128 151 128 150 128 150 128 150 129 150 130 151 129 152 128 152 127 152 127 154 125 154 124 156 123 156 123 157 122 157 121 158 122 159 121 159 121 160 120 160 119 162 118 162 118 163 117 163 117 164 117 164 117 165 116 165 115 166 115 167 114 167 114 168 113 168 113 169 115 171 115 173 111 176 107 177 103 179 100 188 96 196 95 198 93 201 88 203 82 208 80 210 77 217 73 221 72 223 71 227 66 229 61 229 58 229 50 233 48 232 46 230 46 228 43 225 42 225 39 226 35 230 34 231 32 236 30 238 29 240 23 246 21 249 21 254 21 255 26 258 28 259 29 259 33 259 35 260 35 261 35 267 33 271 34 274 37 280 40 281 43 280 44 280 45 280 46 284 46 287 47 289 48 290 50 293 51 298 55 303 53 305 52 307 53 307 53 309 55 309 55 310 54 311 53 311 52 311 50 312 50 313 48 314 45 314 44 313 44 312 44 311 44 310 44 309 34 312 33 315 32 315 26 315 23 313 21 313 17 313 15 314 13 313 11 314 10 313 8 315 7 314 7 312 6 312 5 320 1 320 1 320 1 321 2 321 2 320 3 321 4 321 2 322 1 323 1 323 1 325 2 323 5 322 5 323 4 323 3 325 1 326 1 327 0 327 0 328 0 331 1 332 1 332 1 333 2 333 3 334 3 336 4 336 2 337 2 337 6 340 7 340 15 346 18 346 21 347 22 347 23 347 24 347 25 348 26 346 27 345 34 344 34 343 35 343 36 343 37 342 39 344 40 343 40 341 41 341 42 340 41 344 39 345 38 348 37 348 37 350 35 352 33 352 32 352 31 353 31 353 30 353 29 355 28 354 27 356 27 355 26 355 26 354 25 354 25 355 25 356 25 356 24 357 22 357 22 356 21 355 22 356 21 357 19 358 18 357 17 358 16 359 14 358 15 356 15 355 12 356 12 355 12 354 12 354 10 355 9 358 10 359 16 366 25 375 26 374 25 374 26 374 25 373 26 373 26 373 27 374 26 375 34 385 41 391 44 392 46 393 49 394 50 394 50 394 50 394 50 394 52 393 54 393 54 393 56 393 56 392 57 392 61 390 60 390 62 390 63 389 63 388 64 388 68 387 69 386 69 386 70 386 73 385 74 383 74 384 74 384 76 383 75 382 76 381 75 380 76 381 76 380 78 377 80 373 79 371 79 367 78 366 78 364 78 363 80 362 80 363 79 363 79 364 79 366 80 362 81 362 81 360 81 361 82 361 81 360 81 358 82 360 82 359 82 358 81 358 82 357 81 356 81 356 82 357 82 357 83 358 83 359 84 359 84 360 85 358 85 359 87 358 88 359 89 359 91 358 92 359 92 359 93 358 92 359 92 360 90 359 89 361 87 360 86 360 85 361 84 366 84 368 85 369 85 371 84 371 85 372 89 372 90 372 91 372 90 373 88 373 87 373 86 375 86 376 88 375 88 375 87 376 87 377 88 377 86 379 86 381 86 382 87 385 87 385 87 384 88 384 88 386 90 386 89 386 90 389 90 388 90 390 92 396 92 398 91 401 89 403 89 407 88 408 88 410 87 411 88 413 87 413 87 413 88 414 89 419 88 419 88 420 89 421 90 420 90 421 89 422 89 423 90 424 90 426 90 428 91 430 91 431 91 431 91 431 91 431 90 433 91 433 90 434 91 434 91 432 92 432 93 431 94 431 94 431 94 432 95 432 94 433 94 432 93 433 94 434 93 434 93 435 94 435 94 436 94 437 93 436 93 436 92 436 91 439 93 442 92 443 93 445 93 446 93 446 94 448 96 448 96 449 96 451 96 450 96 449 94 449 94 448 93 448 93 449 94 450 94 451 94 452 94 453 95 454 95 455 96 456 96 456 96 458 97 460 97 461 97 462 98 463 97 464 98 465 98 466 99 466 98 467 99 468 99 469 99 470 99 469 98 469 99 470 100 473 101 474 100 475 100 476 100 476 101 476 100 478 101 480 101 484 101 484 101 485 102 485 101 486 101 487 102 488 102 489 103 489 102 490 103 490 104 493 104 496 104 497 104 497 105 499 107 500 109 503 108 503 109 504 110 506 110 509 111 509 111 509 112 510 113 510 113 511 111 511 112 512 113 511 113 512 114 516 113 518 115 518 116 520 116 521 117 522 118 523 118 523 118 524 117 524 120 526 120 525 121 526 121 527 121 528 121 528 122 530 123 530 123 529 124 530 123 530 125 536 125 537 126 541 126 542 127 542 128 544 129 549 130 555 132 566 133 568 136 574 140 582 140 584 141 584 142 584 144 587 145 588 148 591 149 595 151 596 152 598 154 605 155 610 159 619 162 627 162 627 162 624 163 625 162 626 164 629 164 629 164 629 164 629 165 630 165 633 166 633 166 634 166 634 166 635 166 636 168 637 165 637 165 637 165 637 165 634 165 633 165 631 163 629 163 628 162 628 164 639 168 648 169 650 170 652 178 661 180 663 185 667 190 668 190 666 194 666 195 664 200 662 200 661 200 660 202 659 202 657 201 657 201 656 203 654 204 653 203 653 202 653 203 651 203 649 208 646 211 645 213 645 213 644 213 644 214 644 214 644 217 643 219 642 222 643 224 642 221 642 219 640 218 638 219 635 220 633 223 630 223 628 226 626 225 625 225 624 226 621 228 620 236 621 237 621 238 621 238 610 238 606 237 598 236 594 237 588 237 585 238 583 244 574 246 567 247 560 248 557 247 554 247 554 246 552 244 552 242 550 243 548 244 548 243 549 244 550 244 548 244 548 247 553 246 549 246 545 244 539 245 528 243 525 242 518 243 513 245 509 247 505 248 503 250 502 252 501 255 500 258 501 258 502 258 502 257 503 258 504 261 504 262 503 262 502 262 501 265 498 265 497 267 492 270 490 273 490 277 491 282 489 289 485 289 484 288 484 288 483 288 482 289 482 290 482 290 479 289 480 288 479 288 478 288 477 289 475 290 473 295 470 308 463 311 460 312 458 312 457 315 455 316 454 319 451 327 447 327 446 332 442 334 438 336 436 337 435 341 430 341 430 342 428 344 426 347 424 349 422 354 418 359 415 374 411 373 409 371 409 372 408 373 408 374 410 375 410 375 409 378 405 381 404 383 402 383 401 382 401 383 398 388 394 388 394 386 394 388 394 387 392 385 392 384 393 384 392 385 392 387 392 387 391 384 384 384 383 385 380 387 378 390 376 392 375 396 375 398 374 402 372 403 371 404 372 406 369 407 369 408 368 410 364 410 364 412 362 411 360 409 360 407 359 407 356 406 355 407 355 407 355 408 358 408 359 410 360 411 358 410 360 412 360 413 361 413 363 413 364 412 366 412 366 412 367 413 370 414 370 414 369 415 368 416 368 416 369 417 369 417 367 417 367 419 366 419 367 419 368 420 367 420 367 420 367 421 367 421 365 422 364 421 362 423 360 424 360 424 359 425 358 426 356 427 357 426 356 426 354 426 353 427 352 428 352 428 351 428 351 428 349 428 347 428 347 429 346 428 345 427 345 428 344 427 343 426 343 427 342 426 342 427 342 427 340 428 339 429 338 429 338 429 337 428 337 428 337 426 337 426 336 425 337 425 337 423 336 423 335 424 335 424 334 424 334 424 332 424 332 425 332 425 331 424 331 422 329 422 328 421 328 421 327 420 327 420 325 420 324 421 323 420 322 422 322 423 321 424 321 424 320 425 320 424 319 424 319 424 317 423 317 423 317 423 316 423 315 424 315 424 313 423 312 422 312 421 312 420 312 420 312 419 311 418 310 415 310 414 309 413 309 411 308 409 304 410 303 410 301 411 301 411 300 411 301 411 300 412 299 411 298 413 297 414 298 414 299 414 298 415 299 416 299 415 298 416 297 417 297 417 297 418 295 418 295 418 294 418 293 418 293 418 292 419 291 420 292 421 291 423 291 424 292 425 292 425 292 426 291 428 292 428 292 428 291 428 291 428 290 430 289 428 289 427 288 427 289 426 288 426 287 425 287 426 285 425 284 424 284 424 285 423 285 423 285 422 285 421 284 420 284 419 283 419 283 418 282 418 281 417 281 416 280 414 278 414 277 413 278 412 278 412 278 411 278 411 275 410 275 411 273 412 272 412 272 412 271 412 271 412 269 414 268 416 268 416 266 417 265 417 265 418 265 418 264 419 265 419 264 419 262 416 261 416 262 415 262 416 259 417 258 418 260 419 260 419 262 420 261 420 262 421 262 421 262 421 262 422 263 423 264 423 264 423 265 424 265 424 266 425 265 426 266 426 267 426 267 427 267 427 266 427 266 428 266 429 267 431 267 431 266 430 266 429 266 430 265 429 265 429 265 429 264 428 264 428 263 428 263 428 263 429 262 430 264 431 264 431 264 432 265 431 265 432 265 432 266 433 267 432 269 433 270 434 270 435 271 435 271 435 271 435 272 437 273 438 273 438 272 439 273 441 273 441 274 442 274 442 272 443 271 443 270 442 271 442 271 443 270 442 269 442 269 442 269 443 269 443 268 444 268 444 268 444 269 444 269 445 269 446 270 445 270 446 271 446 272 446 272 446 272 447 273 447 273 447 273 448 273 447 274 447 274 448 274 446 277 447 278 447 279 448 281 448 283 447 285 447 287 447 289 447 289 450 289 453 291 457 292 460 293 461 292 465 292 466 292 467 292 468 292 473 291 477 291 478 292 480 292 481 293 484 292 484 293 485 293 486 292 487 292 487 292 488 292 494 292 497 294 499 294 499 295 501 295 501 295 501 297 502 297 502 297 502 297 502 297 502 297 503 298 503 299 502 299 501 299 500 299 498 298 497 298 498 302 497 304 497 308 496 307 495 307 495 308 496 309 495 309 495 310 492 310 492 312 491 311 490 311 491 313 490 316 490 316 489 315 489 314 488 314 487 313 487 316 487 316 486 315 485 314 485 314 485 315 484 317 483 317 479 317 479 318 479 320 478 319 477 320 477 320 477 320 477 321 476 321 476 321 476 322 477 323 476 325 475 325 475 325 474 326 476 326 475 327 475 327 475 328 475 330 476 330 475 330 476 331 477 334 478 334 477 335 478 335 478 335 478 336 478 338 479 341 480 341 479 338 480 336 481 336 481 337 481 338 482 338 482 339 483 343 484 343 485 342 486 342 486 342 488 341 488 340 489 340 488 336 489 333 490 332 491 332 491 331 492 331 491 326 491 325 492 325 493 327 494 327 496 325 496 325 496 326 497 326 497 327 497 325 498 325 498 326 498 328 498 328 499 331 500 334 500 335 501 336 500 337 500 340 500 341 500 343 501 344 501 345 502 344 502 346 502 348 503 348 503 350 503 352 505 361 505 362 504 362 504 362 505 363 505 365 507 364 507 361 507 361 510 363 510 363 511 366 512 364 512 364 513 365 513 365 513 362 514 362 514 360 515 360 516 361 517 360 516 359 517 359 517 355 516 354 516 353 515 353 516 351 515 349 515 348 515 346 516 346 516 344 517 344 516 342 516 341 517 341 518 342 519 342 521 339 521 339 521 337 521 334 522 333 521 332 522 326 522 325 521 321 520 319 520 318 520 317 521 317 522 317 523 320 524 320 525 319 526 320 526 319 529 319 530 321 532 320 533 320 536 322 537 323 537 323 538 321 538 321 539 318 540 315 541 312 541 311 542 310 542 310 542 309 542 308 543 308 544 306 545 305 546 303 547 303 547 300 549 297 549 297 550 296 550 293 546 291 547 287 548 286 548 285 551 285 552 283 553 283 553 282 553 282 554 281 556 278 555 276 555 275 556 274 557 274 559 271 558 270 557 269 558 268 558 267 558 264 557 263 557 263 556 262 558 259 558 258 560 257 561 258 564 257 566 253 568 254 569 252 570 252 572 249 573 249 575 248 577 245 581 243 586 242 587 243 589 241 591 241 591 240 593 241 594 243 594 243 595 244 594 244 594 245 597 246 598 247 599 247 600 247 600 246 595 239 596 237 595 235 596 234 596 234 597 232 599 232 599 231 602 228 603 228 604 229 605 228 605 226 605 225"/></svg>