<svg xmlns="http://www.w3.org/2000/svg" viewBox="0 0 303.81 288.23" fill="none" stroke="#000" stroke-linecap="round" stroke-linejoin="round" stroke-width="9px"><path d="M233.05,233.15c-5.39,18.26-14.68,29.85-29.15,37.39-23.82,12.41-43.93,10-68.9,10"/><path d="M241.56,135.85c3.23,9.2,5.33,14.76,6.26,24.46"/><path d="M20.21,160.24c6.51-56.17,54.67-97.39,112.64-97.39H140"/><path d="M259.63,134.78H181.3c-9.54,0-44.18,24.93-44.18,24.93s4.5-62,4.5-64.61V44.18A39.8,39.8,0,0,1,181.3,4.5h78.33a39.8,39.8,0,0,1,39.68,39.68V95.1A39.79,39.79,0,0,1,259.63,134.78Z"/><line x1="173.96" y1="47.75" x2="265.21" y2="47.75"/><line x1="173.96" y1="72.54" x2="265.21" y2="72.54"/><line x1="173.96" y1="96.81" x2="265.21" y2="96.81"/><circle cx="107.5" cy="198.08" r="1.05"/><circle cx="133.5" cy="198.08" r="1.05"/><circle cx="159.5" cy="198.08" r="1.05"/><rect x="34.71" y="151.66" width="20.04" height="86.51" rx="8.5"/><path d="M34.68,232.11c-20,0-30.18-15-30.18-37.18s9.69-37.19,30.18-37.19"/><rect x="210.88" y="151.66" width="20.04" height="86.51" rx="8.5"/><path d="M230.94,232.11c20.61,0,30.19-15,30.19-37.18s-9.58-37.19-30.19-37.19"/><rect x="131.76" y="278.19" width="19.52" height="5.54" rx="2.77"/></svg>