<svg xmlns="http://www.w3.org/2000/svg" viewBox="0 0 663 287" fill="#fff"><defs><radialGradient id="radial-gradient" cx="192" cy="220.6" r="177" gradientTransform="matrix(.8,.6,-.5,.6,141,-118)" gradientUnits="userSpaceOnUse"><stop offset=".3" stop-color="#fff"/><stop offset=".7" stop-color="#a40000"/></radialGradient></defs><path d="M73,182a117,117,0,0,1-38.5-6.6A70,70,0,0,1,3.7,156.5a13,13,0,0,1,0-18h0a13,13,0,0,1,18,0h0a64,64,0,0,0,21.7,15.6A80,80,0,0,0,72,159q24,0,35-8a26.5,26.5,0,0,0,11-20,23.5,23.5,0,0,0-11-19A93,93,0,0,0,70,99c-21.7-3.6-38-9.6-48-18A36.7,36.7,0,0,1,7,50a43,43,0,0,1,9-27A53,53,0,0,1,39,6,90,90,0,0,1,72,0a86.7,86.7,0,0,1,37,8,69,69,0,0,1,26,20.5c8,9.6-8,25-20,13A49,49,0,0,0,95,27.7a65.6,65.6,0,0,0-24.7-4,50,50,0,0,0-27.7,6.6,21.7,21.7,0,0,0-9,29l0,0h0A33,33,0,0,0,49.5,72a126,126,0,0,0,27.7,7,123,123,0,0,1,38.6,11,49,49,0,0,1,20.5,18,42.7,42.7,0,0,1,6,22,42,42,0,0,1-9,27,59,59,0,0,1-24.6,18A94,94,0,0,1,73,182Z"/><path d="M401,287a33,33,0,0,1-11-2,19.7,19.7,0,0,1-8.6-5,3.6,3.6,0,1,1,5-5l0,0,0,0a18,18,0,0,0,6,4,22.7,22.7,0,0,0,8,1q7,0,10-2a7.5,7.5,0,0,0,3-5.6,6.6,6.6,0,0,0-3-5A26,26,0,0,0,400.6,264c-6-1-10.7-2.7-13.5-5a10,10,0,0,1-4-9,12,12,0,0,1,2.5-7.6,15,15,0,0,1,6.6-4.7,25,25,0,0,1,9-1.7,24,24,0,0,1,10,2,19,19,0,0,1,7,5.7c2,2.7-2,7-5.6,3.7a14,14,0,0,0-5-4,18,18,0,0,0-7-1,14,14,0,0,0-8,2,6,6,0,0,0-2.6,8v0h0a9,9,0,0,0,4,3.6,35.5,35.5,0,0,0,8,2,34,34,0,0,1,11,3,14,14,0,0,1,6,5,12,12,0,0,1,1.7,6,12,12,0,0,1-2.5,7.6,16.5,16.5,0,0,1-7,5A26,26,0,0,1,401,287Z"/><path fill="url(#radial-gradient)" d="M314,12.6a96,96,0,0,0-92.7,0,90,90,0,0,0-44.6,79c0,61,55,91,88.5,91,14,0,48-4,67-33.7v20c0,16,25,16,25,0h0c0-.6,0-77,0-77h0A97.6,97.6,0,0,0,314,12.6ZM268,158a67,67,0,1,1,1,0Z"/><path d="M234,33.6a67,67,0,0,0-33,57.8H176.7c-0-16,5-55,45-79Z"/><path fill="#a40000" d="M654,35A63,63,0,0,0,631,9,65,65,0,0,0,597,.6a72,72,0,0,0-36,9,65,65,0,0,0-23,21.7A64,64,0,0,0,515,8a66,66,0,0,0-80.7,13V14c0-16-25-16-25,0V168c0,16,25,17.5,25,0V67A46.7,46.7,0,0,1,462.6,27a45,45,0,0,1,18-3A39.7,39.7,0,0,1,512,38a53,53,0,0,1,12,36.7V168c0,16.5,24.7,17.6,24.7,0V73.5h0a50,50,0,0,1,12.6-36,43,43,0,0,1,32.6-13,37,37,0,0,1,31,14,53,53,0,0,1,12,36.7V168c0,16.5,25.5,17,25,0h0c0-.6,0-93,0-93A87,87,0,0,0,654,35Z"/><path fill="#a40000" d="M248,240.6,238,276l-9.6-35.5c-2-3.6-5-2.7-6,0l-10,36-11-36c-1-4-7-3-5,2l12.6,43c.9,2.7,5,2.7,6,0l10-36.7L235,285a3,3,0,0,0,6,0l13-43C255,237.6,249,236,248,240.6Z"/><path fill="#a40000" d="M306,249a20.5,20.5,0,0,0-8.5-8,31,31,0,0,0-26.5,0,22,22,0,0,0-9,9,24.6,24.6,0,0,0-3,12.6,26.7,26.7,0,0,0,13,22,30,30,0,0,0,14,3,35,35,0,0,0,18-6c2-2,0-8-5-4a28,28,0,0,1-12.6,3.6,21.5,21.5,0,0,1-10-2,19.6,19.6,0,0,1-7-6.6,17.5,17.5,0,0,1-2-7h39c2,0,3,0,3.6-3A26,26,0,0,0,306,249Zm-31-3a19,19,0,0,1,9.6-2,18,18,0,0,1,9.6,2,15,15,0,0,1,6,6,18,18,0,0,1,2,6.6H266a21,21,0,0,1,2-6,17,17,0,0,1,6.6-6.6Z"/><path d="M452,281c-4,0-12-0-12-11V243.7h6c4.7,0,5-6,0-6h-6v-16c0-3-5-3-5,0v16h-6c-5,0-4.5,6,0,6h6v27c0,14,9,17,17.5,17C457.7,287,457,281,452,281Z"/><path d="M506.6,241v25.6c0,17-29.5,21-32,2.7v-28c0-4-6.5-4-6.6,0v28c3,27,38.5,17.6,38.5,9v5a3,3,0,0,0,6,0V241C512.6,237,506.6,237.5,506.6,241Z"/><path d="M594,283.7V243a3.6,3.6,0,1,1,7,0v0h0v40C601,289,594,288,594,283.7Z"/><path fill="#a40000" d="M322,222.6v41a24,24,0,1,0,6.6-17V222.6C329,219,322,219,322,222.6Zm6,40a18,18,0,1,1,18,18h0a18,18,0,0,1-18-18v-0h0Z"/><path d="M569.5,222.6v24a24,24,0,1,0,6.6,17V222.6C576,219,569.5,219,569.5,222.6ZM552,281A18,18,0,1,1,570,263V263h0A18,18,0,0,1,552,281Z"/><path d="M638,236.6A25,25,0,1,0,663,262a25,25,0,0,0-25-25h0Zm0,44A18.6,18.6,0,1,1,656.5,262h0a18.6,18.6,0,0,1-18.6,18.6h0Z"/><circle cx="597.7" cy="223" r="4"/></svg>