<svg id="Layer_1" data-name="Layer 1" xmlns="http://www.w3.org/2000/svg" viewBox="0 0 447.64 89.65"><defs><style>.cls-1{fill:#417972;}</style></defs><path d="M28.85,19H6.11V8.33H63.05V19H40.32V79.2H28.85Z"/><path d="M71,8.33h46.46V19h-35V37.9H114.6V48.12H82.49V68.57H118V79.2H71Z"/><path d="M123,43.77c0-20.25,14.86-36.45,35.2-36.45,11.27,0,19.24,4,25.63,10.53L176,25.75c-4.19-4.56-10.07-7.29-17.85-7.29-13.76,0-23.44,10.43-23.44,25.31s9.68,25.31,23.44,25.31c8.47,0,14.16-2.84,18.35-7.39l7.77,7.89c-6.38,6.59-15,10.64-26.12,10.64C137.84,80.22,123,64.12,123,43.77Z"/><path d="M192.58,8.33h11.47V37.19H237V8.33h11.47V79.2H237V47.82h-32.9V79.2H192.58Z"/><path d="M261.58,8.33h11.47V79.2H261.58Z"/><path d="M286.21,8.33h46.47V19h-35V37.9h32.11V48.12H297.68V68.57h35.5V79.2h-47Z"/><path class="cls-1" d="M376.87,8.13h27.94v4.51H378.25A3.7,3.7,0,0,0,375,14.27c-8.27,11.42-16.55,22.7-24.83,34.11a4.64,4.64,0,0,0-.88,2.13v23.7c0,.13.13.25.26.51h53.82V79.1H344.77V52.52a7.73,7.73,0,0,1,1.13-3.76c9.4-13,18.93-26,28.34-39A3.07,3.07,0,0,1,376.87,8.13Z"/><path class="cls-1" d="M396.06,19.42v29h5.27v8.4c-1.63.13-3.26.13-5.14.25v8.53h-8.65V57H362c0-3.13-.13-5.89,0-8.53,0-.75.75-1.5,1.25-2.25,6-8.41,12.16-16.68,18.18-25.08a3.49,3.49,0,0,1,3.39-1.76Zm-8.77,8.65c-.13-.12-.26-.12-.38-.25-4.89,6.65-9.78,13.42-14.8,20.32h15.18Z"/><path class="cls-1" d="M345,41.87c-.38-3.14-.13-5.14,1.5-7.4,6-7.9,11.91-16,17.68-24.08,1.26-1.88,2.64-2.5,5.14-1.75C361.2,19.67,353.3,30.58,345,41.87Z"/><path class="cls-1" d="M360,8.39c-4.89,6.77-9.78,13.29-14.8,20.31-.37-2.88-.37-5,1.38-7.15,2.89-3.51,5.39-7.27,8-10.91C356.31,8.14,356.31,8.14,360,8.39Z"/><path class="cls-1" d="M345,8.51h7.4c-2.51,3.51-4.77,6.52-7,9.66-.12,0-.25-.13-.37-.13Z"/><path class="cls-1" d="M438,8.14v16.7a13,13,0,0,1-.13,3.05c-.35,1.46-1.93.3-2.69-.08s-1.52-.68-2.36-1V8.14Z"/><path class="cls-1" d="M409.12,8.14V28.71A14.78,14.78,0,0,0,406,31.54a11.64,11.64,0,0,0-2,3.59v-27Z"/><path class="cls-1" d="M437.42,41.91a14,14,0,0,1-4,7,14.84,14.84,0,0,1-3.44,2.4c-1.24-.69-2.48-1.37-3.73-2l-1.76-.89a10.35,10.35,0,0,0,5.31-2.69c3.61-3.54,3.06-13.44,3-13.45a12.22,12.22,0,0,1,3.05,4.34A22.52,22.52,0,0,1,437.42,41.91Z"/><path class="cls-1" d="M441.41,26.86l-.35,17.25h-2c-.06-.76-.15-1.51-.27-2.24a28.55,28.55,0,0,0-.84-3.54c-.25-.77-.52-1.53-.83-2.26-2.51-5.88-8.41-8.57-14.58-8.22a12.77,12.77,0,0,0-6.69,2,9,9,0,0,0-3.5,5.11c-2,8.24,7.39,12.53,13.26,15.51,4.14,2.1,8.52,4.46,11.33,8.27a10.74,10.74,0,0,1,2,6.61A11.54,11.54,0,0,1,436.49,73a15.32,15.32,0,0,1-6.63,4.53,26.61,26.61,0,0,1-12.51,1.35,27.86,27.86,0,0,1-6.1-1.48c-1.5-.56-4.26-2.91-5.93-1.93-.54.31-1.34,3.64-1.34,3.64h-2s.42-13.12.43-14.58V61.3h2A46.19,46.19,0,0,0,406,68.57a14.4,14.4,0,0,0,4.24,6.06,15.38,15.38,0,0,0,10.3,3c3-.12,6.07-.93,8.21-3a9.13,9.13,0,0,0,.86-11.66,18,18,0,0,0-4.7-4.09c-3-1.92-6.2-3.54-9.33-5.27s-6.17-3.41-8.48-6.16A12.06,12.06,0,0,1,405.44,35c3.5-8,14.47-9.8,22.14-8.4a36.3,36.3,0,0,1,8.29,3c2.32,1,3.1-.45,3.51-2.47,0-.11.05-.34.05-.34Z"/></svg>