<svg xmlns="http://www.w3.org/2000/svg" viewBox="0 0 67 75" fill="none" stroke="#000" stroke-linecap="round" stroke-linejoin="round" stroke-width="2px"><path d="M58,28l6,3a2,2,0,0,1,2,2h0V72a2,2,0,0,1-2,2H3a2,2,0,0,1-2-2V33a2,2,0,0,1,2-2H3l6-3"/><path d="M65,31,36,53a4,4,0,0,1-5,0L2,31"/><line x1="49" y1="52" x2="65" y2="72"/><line x1="18" y1="53" x2="2" y2="72"/><path d="M10,36V8a8,8,0,0,1,7-7H42L58,18V36"/><path d="M58,18H47c-3,0-5-2-5-4V1"/><line x1="20" y1="18" x2="33" y2="18"/><line x1="20" y1="26" x2="47" y2="26"/><line x1="20" y1="34" x2="47" y2="34"/></svg>