<svg xmlns="http://www.w3.org/2000/svg" viewBox="0 0 196.45 252.41"><path d="M42.64,252.37c-4.11-1.37-4.64-38-1.92-56.07C43.6,184.38,58.81,120,58.81,120a54.68,54.68,0,0,1-4.66-23c0-21.39,12.48-37.29,27.42-37.29a19.33,19.33,0,0,1,19.6,19h0a517.41,517.41,0,0,1-12.75,53.71A21.67,21.67,0,0,0,103.5,159c29.3,0,55.38-28,55.38-69.5,1.48-33-25.2-62.5-62.23-62.5S28.11,54,28.11,90.75h0a60.57,60.57,0,0,0,11.37,38,4.12,4.12,0,0,1,1.1,4.39c-1.1,4.93-3.7,15.35-4.25,17.41s-2.19,3.43-5.07,2C11.93,143.66,0,115.56,0,93.08,0,44.55,35.23,0,101.58,0c53.33,0,94.87,38,94.87,88.83s-33.45,96-79.79,96A41.13,41.13,0,0,1,81.3,167.11s-7.68,29.33-9.46,36.46C64.57,221,46.61,253.74,42.64,252.37Z"/></svg>