<svg xmlns="http://www.w3.org/2000/svg" viewBox="0 0 188.64 50"><defs><style>.cls-1{fill:#fff;}.cls-2{fill:#000032;}.cls-3{fill:#00b67a;}.cls-4{fill:#005128;}</style></defs><rect class="cls-1" width="188.64" height="50" rx="2.27"/><path class="cls-2" d="M0,2.27A2.27,2.27,0,0,1,2.27,0H94.32V50h-92A2.28,2.28,0,0,1,0,47.78Z"/><path class="cls-1" d="M31.71,21.46h6.93v1.2H35.91v6.71h-1.5V22.66H31.7Zm6.61,2.19h1.3v1.1h0a1.22,1.22,0,0,1,.24-.45,1.77,1.77,0,0,1,.42-.4,2,2,0,0,1,.55-.3,1.77,1.77,0,0,1,.6-.11H42V24.7h-.6a1.64,1.64,0,0,0-.65.13,2,2,0,0,0-.54.36,1.83,1.83,0,0,0-.36.62,2.39,2.39,0,0,0-.14.84v2.72H38.32Zm9.92,5.72H46.91v-.8h0a1.9,1.9,0,0,1-.76.7,2.32,2.32,0,0,1-1,.26A2.38,2.38,0,0,1,43.32,29a2.32,2.32,0,0,1-.55-1.69V23.65h1.37v3.51a1.4,1.4,0,0,0,.32,1.06,1.2,1.2,0,0,0,.88.32,1.77,1.77,0,0,0,.72-.13,1.22,1.22,0,0,0,.73-.82,2.15,2.15,0,0,0,.08-.62V23.65h1.45v5.72Zm2.33-1.83a1,1,0,0,0,.45.78,2,2,0,0,0,1,.22h.44a2.46,2.46,0,0,0,.45-.11.77.77,0,0,0,.36-.23.6.6,0,0,0-.07-.79,1.38,1.38,0,0,0-.46-.25A3.53,3.53,0,0,0,52.1,27l-.78-.18c-.25-.05-.5-.12-.74-.19a1.9,1.9,0,0,1-.64-.31,1.38,1.38,0,0,1-.45-.48,1.43,1.43,0,0,1-.17-.73,1.21,1.21,0,0,1,.25-.78,1.71,1.71,0,0,1,.63-.5,2.83,2.83,0,0,1,.85-.28,5.22,5.22,0,0,1,.88-.07,4.6,4.6,0,0,1,.91.09,2.46,2.46,0,0,1,.79.31,1.9,1.9,0,0,1,.58.55,1.81,1.81,0,0,1,.3.81H53.1a.82.82,0,0,0-.44-.61,1.94,1.94,0,0,0-.82-.16H51.5a2.33,2.33,0,0,0-.38.08,1.75,1.75,0,0,0-.29.18.44.44,0,0,0-.13.31.48.48,0,0,0,.17.37,2,2,0,0,0,.46.24,4.61,4.61,0,0,0,.64.16l.74.15a6,6,0,0,1,.73.19,1.88,1.88,0,0,1,.64.3,1.51,1.51,0,0,1,.46.48,1.32,1.32,0,0,1,.17.7,1.5,1.5,0,0,1-.25.87,2.12,2.12,0,0,1-.65.58,3.51,3.51,0,0,1-.89.32,4.79,4.79,0,0,1-1,.11,4.45,4.45,0,0,1-1.09-.13A2.73,2.73,0,0,1,50,29a1.88,1.88,0,0,1-.57-.62,2.05,2.05,0,0,1-.23-.88h1.4Zm4.51-3.89h1V21.92h1.37v1.72h1.23v.93H57.51v3.06a2,2,0,0,0,0,.35.68.68,0,0,0,.08.24.43.43,0,0,0,.2.15,1.12,1.12,0,0,0,.36.05h.57v1h-.89a3.18,3.18,0,0,1-.87-.09,1.41,1.41,0,0,1-.51-.28.81.81,0,0,1-.25-.45,2.72,2.72,0,0,1-.08-.63V24.58h-1v-.93Zm4.6,0H61v.78h0a1.6,1.6,0,0,1,.8-.72,2.7,2.7,0,0,1,1.12-.22,2.9,2.9,0,0,1,1.27.24,2.46,2.46,0,0,1,.91.65,2.54,2.54,0,0,1,.53,1,3.71,3.71,0,0,1,.19,1.19,4.14,4.14,0,0,1-.16,1.11,3.11,3.11,0,0,1-.49,1,2.49,2.49,0,0,1-.84.67,2.71,2.71,0,0,1-1.19.25,3.92,3.92,0,0,1-.59-.05,4,4,0,0,1-.57-.16,1.92,1.92,0,0,1-.5-.29,1.48,1.48,0,0,1-.39-.4h0v2.86H59.71V23.65Zm4.79,2.86a2.34,2.34,0,0,0-.12-.74,1.61,1.61,0,0,0-.33-.65,2.08,2.08,0,0,0-.53-.45,1.5,1.5,0,0,0-.75-.17,1.57,1.57,0,0,0-1.3.55A2.42,2.42,0,0,0,61,26.52a2.48,2.48,0,0,0,.11.81A1.69,1.69,0,0,0,62,28.38a1.78,1.78,0,0,0,1.53,0,2,2,0,0,0,.54-.45,1.55,1.55,0,0,0,.3-.65,4,4,0,0,0,.11-.77Zm2.41-5.05h1.44v1.2H66.9Zm0,2.19h1.44v5.72H66.9Zm2.59-2.19h1.37v7.91H69.49ZM75,29.53a3.5,3.5,0,0,1-1.32-.23,3.05,3.05,0,0,1-1-.62,2.87,2.87,0,0,1-.61-1,3.38,3.38,0,0,1-.22-1.22,3.08,3.08,0,0,1,.22-1.2,2.62,2.62,0,0,1,1.59-1.58A3.6,3.6,0,0,1,75,23.45a3.55,3.55,0,0,1,1.33.23,3.05,3.05,0,0,1,1,.62,2.87,2.87,0,0,1,.61,1,3.48,3.48,0,0,1,.21,1.2,3.37,3.37,0,0,1-.21,1.22,3.2,3.2,0,0,1-.61,1,2.59,2.59,0,0,1-1,.62,3.77,3.77,0,0,1-1.29.19Zm0-1a1.82,1.82,0,0,0,.79-.18,1.47,1.47,0,0,0,.55-.47,1.92,1.92,0,0,0,.32-.64,2.64,2.64,0,0,0,.1-.74,2.5,2.5,0,0,0-.1-.72,1.72,1.72,0,0,0-.32-.65,1.7,1.7,0,0,0-.55-.45,1.82,1.82,0,0,0-1.58,0,1.8,1.8,0,0,0-.54.45,1.72,1.72,0,0,0-.32.65,2.51,2.51,0,0,0-.11.72,2.65,2.65,0,0,0,.11.74,1.75,1.75,0,0,0,.32.64,1.87,1.87,0,0,0,.54.47,1.63,1.63,0,0,0,.81.18Zm3.54-4.88h1V21.92h1.37v1.72h1.24v.93H81v3.06A2.29,2.29,0,0,0,81,28a.68.68,0,0,0,.08.24.36.36,0,0,0,.19.15,1.14,1.14,0,0,0,.37.05h.57v1h-.89a3.18,3.18,0,0,1-.87-.09,1.32,1.32,0,0,1-.52-.28,1,1,0,0,1-.25-.45,3,3,0,0,1,0-.6V24.58h-1v-.93Z"/><path class="cls-3" d="M30.11,21.46H23.84L21.91,16,20,21.5H13.7l5.07,3.41-1.94,5.5L21.9,27,27,30.4l-2-5.5Z"/><path class="cls-4" d="M25.48,26.1,25,24.86,21.91,27Z"/><path class="cls-3" d="M111.24,11.93,113,15.34l3.41.43L114,18.39l.64,3.77-3.41-1.71-3.41,1.71.64-3.77-2.34-2.62,3.41-.43Z"/><path class="cls-3" d="M124.88,11.93l1.7,3.41,3.41.43-2.34,2.62.64,3.77-3.41-1.71-3.41,1.71.64-3.77-2.35-2.62,3.41-.43Z"/><path class="cls-3" d="M138.51,11.93l1.71,3.41,3.41.43-2.31,2.62.63,3.77-3.41-1.71-3.4,1.71.64-3.77-2.35-2.62,3.41-.43Z"/><path class="cls-3" d="M152.15,11.93l1.71,3.41,3.4.43-2.34,2.62.64,3.77-3.41-1.71-3.41,1.71.64-3.77L147,15.77l3.41-.43Z"/><path class="cls-3" d="M165.79,11.93l1.7,3.41,3.41.43-2.34,2.62.64,3.77-3.41-1.71-3.41,1.71.64-3.77-2.35-2.62,3.41-.43Z"/><path d="M107.73,36.36V30h2.38a3.47,3.47,0,0,1,1.39.26,2,2,0,0,1,.9.75,2.1,2.1,0,0,1,.31,1.17,2.18,2.18,0,0,1-.31,1.17,2,2,0,0,1-.9.74,3.47,3.47,0,0,1-1.39.26h-2l.3-.31v2.32Zm4.35,0-1.64-2.31h.73l1.64,2.31Zm-3.68-2.27-.3-.32h2a2.11,2.11,0,0,0,1.44-.42,1.44,1.44,0,0,0,.5-1.17,1.48,1.48,0,0,0-.5-1.18,2.11,2.11,0,0,0-1.44-.42h-2l.3-.32Zm4.92,2.27L116.19,30h.67l2.91,6.36h-.71l-2.68-6h.28l-2.68,6Zm1.15-1.7.2-.54h3.65l.2.54Zm7.3,1.7V30.58h-2.23V30h5.14v.58h-2.23v5.78Zm4,0V30h.67v6.36Zm2.74,0V30h.56l4.39,5.53h-.29V30h.66v6.36h-.55l-4.39-5.52h.29v5.52Zm10.19.06a3.66,3.66,0,0,1-1.35-.24,3.49,3.49,0,0,1-1.06-.68,2.92,2.92,0,0,1-.7-1,3.49,3.49,0,0,1,0-2.58,3.09,3.09,0,0,1,.71-1,3.28,3.28,0,0,1,1.06-.67,4,4,0,0,1,2.67,0,2.57,2.57,0,0,1,1,.69l-.42.43a2.23,2.23,0,0,0-.88-.57,3.09,3.09,0,0,0-1-.17,2.74,2.74,0,0,0-1.09.2,2.53,2.53,0,0,0-.86.55,2.84,2.84,0,0,0-.57.84,2.57,2.57,0,0,0,0,2,2.84,2.84,0,0,0,.57.84,2.72,2.72,0,0,0,.86.56,3.13,3.13,0,0,0,1.09.19,3.09,3.09,0,0,0,1-.17,2.26,2.26,0,0,0,.9-.55l.38.51a3.12,3.12,0,0,1-1.06.61,4.14,4.14,0,0,1-1.3.23Zm1.69-.89V33.18H141v2.43Z"/><path d="M160.56,34.81h-1.31v1.7h-1.82v-1.7h-4.34V33.56l3.8-5.1h2l-3.52,4.84h2.17V31.79h1.76V33.3h1.31Z"/><path d="M161.6,36.27a1.09,1.09,0,0,1-.32-.8,1.06,1.06,0,0,1,.32-.8,1.2,1.2,0,0,1,1.59,0,1.06,1.06,0,0,1,.32.8,1.09,1.09,0,0,1-.32.8,1.12,1.12,0,0,1-1.59,0Z"/><path d="M169.48,31.77a2.38,2.38,0,0,1,1,.88,2.33,2.33,0,0,1,.37,1.31,2.59,2.59,0,0,1-.4,1.42,2.73,2.73,0,0,1-1.1.94,3.74,3.74,0,0,1-1.55.32,3.39,3.39,0,0,1-2.64-1,4.2,4.2,0,0,1-1-3,4.87,4.87,0,0,1,.52-2.34,3.51,3.51,0,0,1,1.44-1.49,4.49,4.49,0,0,1,2.15-.5,5.45,5.45,0,0,1,1.23.14,3.33,3.33,0,0,1,1,.41l-.69,1.37a2.63,2.63,0,0,0-1.51-.4,2.18,2.18,0,0,0-1.62.59,2.5,2.5,0,0,0-.64,1.74,2.66,2.66,0,0,1,2-.71A3.09,3.09,0,0,1,169.48,31.77Zm-.81,3.16a1.22,1.22,0,0,0,0-1.75,1.66,1.66,0,0,0-2,0,1.08,1.08,0,0,0-.39.87,1.1,1.1,0,0,0,.38.86,1.54,1.54,0,0,0,1,.33A1.45,1.45,0,0,0,168.67,34.93Z"/></svg>