<svg xmlns="http://www.w3.org/2000/svg" viewBox="0 0 59.84 59.77"><path d="M29.89,0A29.86,29.86,0,0,0,3.94,44.69L.13,58.26c-.25,1,0,1.7,1.58,1.47.84-.17,14.2-3.5,14.2-3.5A29.87,29.87,0,1,0,29.89,0ZM40,44.58c-15.8-.71-25.29-15.46-25.6-21.5a8.48,8.48,0,0,1,2.71-6.33A2.71,2.71,0,0,1,19,15.64h1.47c.49,0,1.11-.19,1.74,1.3s2.22,5.27,2.22,5.65a1.27,1.27,0,0,1,0,1.33,15.63,15.63,0,0,1-1.92,2.71,1.14,1.14,0,0,0-.36,1.55h0a21.75,21.75,0,0,0,10.43,9c.76.38,1.22.33,1.68-.19a38.29,38.29,0,0,0,2.42-3c.52-.8,1-.65,1.74-.38s6.39,2.55,6.73,3.34a5.48,5.48,0,0,1-.26,3.92S42.74,44.4,40,44.58Z"/></svg>