<svg xmlns="http://www.w3.org/2000/svg" viewBox="0 0 407.7 47" fill="url(#linear-gradient)"><linearGradient id="linear-gradient" x1="22" y1="-329" x2="62.5" y2="-315.6" gradientTransform="matrix(1, 0, 0, -1, 136, -345.4)" gradientUnits="userSpaceOnUse"><stop offset=".5" stop-color="#a40000"/><stop offset="1" stop-color="#0f0000"/></linearGradient><path d="M13.5,47A22,22,0,0,1,6,46,13.6,13.6,0,0,1,.6,42.4a2,2,0,0,1-.6-2A2.4,2.4,0,0,1,1,39a2.6,2.6,0,0,1,3.6,0,9,9,0,0,0,3.7,2.5,14,14,0,0,0,5,1q4,0,6-1.4a4,4,0,0,0,2-3.5,4,4,0,0,0-2-3.4A17,17,0,0,0,13,32q-6-1-9-3.4A7,7,0,0,1,1.4,23,8,8,0,0,1,3,18a10,10,0,0,1,4.4-3,18.4,18.4,0,0,1,13,0A12.5,12.5,0,0,1,25,19a2.4,2.4,0,0,1,.6,2,2,2,0,0,1-1,1.5,2.4,2.4,0,0,1-2,.4,3,3,0,0,1-2-1A9,9,0,0,0,17.6,19a12,12,0,0,0-4.4-.7,9,9,0,0,0-5,1,3.6,3.6,0,0,0-2,3A4,4,0,0,0,7,25a5.7,5.7,0,0,0,2.5,1.7,25,25,0,0,0,5,1.4,23.7,23.7,0,0,1,7,2,9,9,0,0,1,3.7,3,8.4,8.4,0,0,1-.5,9A11,11,0,0,1,20.4,46,17,17,0,0,1,13.5,47Z"/><path d="M63,30.5a17,17,0,0,0-2-8.6,16,16,0,0,0-6-6,17.5,17.5,0,0,0-17,0,16,16,0,0,0-6,6,17,17,0,0,0-2,8.6A17,17,0,0,0,31.6,39a16,16,0,0,0,5.7,6,15.4,15.4,0,0,0,8,2,15,15,0,0,0,12-6v3a2.4,2.4,0,0,0,.7,2,2.7,2.7,0,0,0,2,.7,2.5,2.5,0,0,0,2-.7,2.4,2.4,0,0,0,.7-2V30.5Zm-6.5,6A11.4,11.4,0,0,1,52,41a11,11,0,0,1-6,1.6A11.5,11.5,0,0,1,36,36.7a13,13,0,0,1,0-12.4A12,12,0,0,1,40,20a11,11,0,0,1,6-1.6,11,11,0,0,1,6,1.6,12,12,0,0,1,4,4A13,13,0,0,1,56.4,36.7Z"/><path d="M114,20a11,11,0,0,0-4-4.6,12,12,0,0,0-6-1.6,13.5,13.5,0,0,0-6.7,1.7,12,12,0,0,0-4,3.7A11,11,0,0,0,89,15a12.6,12.6,0,0,0-12.5,0A11,11,0,0,0,74,17.5v-1a2.5,2.5,0,0,0-.7-2,2.4,2.4,0,0,0-2-.7,2.5,2.5,0,0,0-2,.7,2.5,2.5,0,0,0-.7,2V44.4a2.5,2.5,0,0,0,.7,2,2.5,2.5,0,0,0,2,.7h0A2,2,0,0,0,74,44.4h0V27h0a8.4,8.4,0,0,1,2-6A8,8,0,0,1,82,18.5a7,7,0,0,1,5.4,2,9,9,0,0,1,2,6.4V44.4a2.4,2.4,0,0,0,.7,2,2.5,2.5,0,0,0,2,.7h0a2,2,0,0,0,2-2.5h0V26.6a9,9,0,0,1,2-6,7.6,7.6,0,0,1,6-2,7,7,0,0,1,5.4,2,9,9,0,0,1,2,6.4V44.4a2.4,2.4,0,0,0,.7,2,2.5,2.5,0,0,0,2,.7h0a2.5,2.5,0,0,0,2-.7,2.4,2.4,0,0,0,.7-2V27A16,16,0,0,0,114,20Z"/><path d="M158,15a2,2,0,0,0-2-1,2.5,2.5,0,0,0-2.5,2l-7.4,22.4L140,16a3,3,0,0,0-1-1.4,2.4,2.4,0,0,0-1.6-.5,2.4,2.4,0,0,0-1.6.5,2.7,2.7,0,0,0-1,1.4l-7,22.5-7-22.5a3,3,0,0,0-1-1.6,2.5,2.5,0,0,0-1.6-.5,2,2,0,0,0-2,1,4,4,0,0,0,0,2.6l9,27.7a3,3,0,0,0,1,1,2.4,2.4,0,0,0,1.5.5,2.6,2.6,0,0,0,1.5-.5,2,2,0,0,0,1-1l7-23,7,23a2,2,0,0,0,1,1,2.6,2.6,0,0,0,1.5.5,2.4,2.4,0,0,0,1.4-.4,2.5,2.5,0,0,0,1-1l9-27.7A3,3,0,0,0,158,15Z"/><path d="M188,21.6a14,14,0,0,0-5-5.7,15,15,0,0,0-8-2,15.6,15.6,0,0,0-8,2,15,15,0,0,0-5.6,6,18,18,0,0,0-2,9,17,17,0,0,0,2,8.6A15.6,15.6,0,0,0,167,45a17.6,17.6,0,0,0,14.5,1,16,16,0,0,0,5-3,2,2,0,0,0,1-1.6,2,2,0,0,0-1-1.7,2,2,0,0,0-1.5-.5,3,3,0,0,0-1.7.6,10,10,0,0,1-3.4,2,13,13,0,0,1-4,.7A12.6,12.6,0,0,1,169.4,41a11,11,0,0,1-4-4,12.6,12.6,0,0,1-1.5-4.6H187.5a2.4,2.4,0,0,0,1.7-.6,2,2,0,0,0,.6-1.6A18.4,18.4,0,0,0,188,21.6Zm-19-2a11,11,0,0,1,6-1.5,10,10,0,0,1,5.6,1.5,9.7,9.7,0,0,1,3.6,4,13,13,0,0,1,1,4H164a14,14,0,0,1,1-4,10,10,0,0,1,4-4Z"/><path d="M211,47A16,16,0,0,1,197,39a16.6,16.6,0,0,1-2-8.4v-28A2.4,2.4,0,0,1,197,0h.5a2.5,2.5,0,0,1,2,.7,2.6,2.6,0,0,1,.7,2V20a14.5,14.5,0,0,1,5-4.4,15,15,0,0,1,7-1.6A15.4,15.4,0,0,1,220,16a15.7,15.7,0,0,1,5.7,6,17,17,0,0,1,2,8.4A17,17,0,0,1,225.7,39a16,16,0,0,1-6,6A17,17,0,0,1,211,47Zm0-4.6a11.5,11.5,0,0,0,6-1.6,12,12,0,0,0,4-4,13,13,0,0,0,0-12.4,12,12,0,0,0-16-4.4h-0A11,11,0,0,0,201,24a13.5,13.5,0,0,0,0,12.4,11.4,11.4,0,0,0,4,4.4A11,11,0,0,0,211,42.6Z"/><path d="M245.5,47A22,22,0,0,1,238,46a13.6,13.6,0,0,1-5.6-3.5,2,2,0,0,1-.6-2,2.4,2.4,0,0,1,1-1.7,2.6,2.6,0,0,1,3.6,0,9,9,0,0,0,3.7,2.5,14,14,0,0,0,5,1q4,0,6-1.4a4,4,0,0,0,2-3.5,4,4,0,0,0-2-3.4,17,17,0,0,0-6.6-2q-6-1-9-3.4A7,7,0,0,1,233.4,23,7.7,7.7,0,0,1,235,18a10,10,0,0,1,4.4-3,18.4,18.4,0,0,1,13,0,12.6,12.6,0,0,1,4.7,3.6,2.4,2.4,0,0,1,.6,2,2,2,0,0,1-1,1.5,2.4,2.4,0,0,1-2,.4,3,3,0,0,1-2-1A9,9,0,0,0,249.6,19a12,12,0,0,0-4.4-.7,9,9,0,0,0-5,1,3.6,3.6,0,0,0-2,3,4,4,0,0,0,.7,2,5.7,5.7,0,0,0,2.5,1.7A25.5,25.5,0,0,0,246.5,28a23.5,23.5,0,0,1,7,2,9.5,9.5,0,0,1,3.7,3,8,8,0,0,1,1,4,8,8,0,0,1-1.6,5A11,11,0,0,1,252.4,46,17,17,0,0,1,245.5,47Z"/><path d="M279,42.6a2,2,0,0,0-1.6-.7h-2A5,5,0,0,1,271.7,40a7,7,0,0,1-1.7-4.7V19.6h6A2.4,2.4,0,0,0,278,19a2,2,0,0,0,0-3,2,2,0,0,0-1.7-.6h-6V6a2.5,2.5,0,0,0-.7-2,2.4,2.4,0,0,0-2-.7,2.4,2.4,0,0,0-2,.7,2.5,2.5,0,0,0-.7,2v9H261.5a2,2,0,0,0-1.7.6,2,2,0,0,0-.7,1.6,2,2,0,0,0,.7,1.5,2,2,0,0,0,1.7.6H265V35a12,12,0,0,0,1.4,6,10.4,10.4,0,0,0,4,4,10.5,10.5,0,0,0,5.6,1.5h1a3,3,0,0,0,2-.7,2,2,0,0,0,1-2A2.6,2.6,0,0,0,279,42.6Z"/><path d="M313.7,14.7a2.5,2.5,0,0,0-2-.7h-.4a2.4,2.4,0,0,0-2,2.6V34h-0a7,7,0,0,1-1,4,9,9,0,0,1-3.6,3A12,12,0,0,1,294,41.4a9,9,0,0,1-3.7-3.5,11.6,11.6,0,0,1-1.4-6V16.6a2,2,0,0,0,0-.6,2.5,2.5,0,0,0-5,.6v15a17,17,0,0,0,2,8.4A13,13,0,0,0,291,45.5a16,16,0,0,0,7.6,2,14.5,14.5,0,0,0,7-1.7,13,13,0,0,0,3.7-3V44a2.5,2.5,0,0,0,.7,2,2.5,2.5,0,0,0,2,.7,2.6,2.6,0,0,0,2-.7,2.5,2.5,0,0,0,.7-2V16.6A2.4,2.4,0,0,0,313.7,14.7Z"/><path d="M337,47A16.7,16.7,0,0,1,328.6,45a16,16,0,0,1-6-6,17,17,0,0,1-2-8.6,17,17,0,0,1,2-8.5,16,16,0,0,1,5.7-6,15,15,0,0,1,8-2,15,15,0,0,1,7,1.6,14.6,14.6,0,0,1,5,4V2.6a2.4,2.4,0,0,1,.7-2,2.5,2.5,0,0,1,2-.7,2.5,2.5,0,0,1,2,.7,2.4,2.4,0,0,1,.7,2v28A17,17,0,0,1,351.4,39a16,16,0,0,1-14,8Zm0-4.6a11,11,0,0,0,6-1.6,12,12,0,0,0,4-4,13,13,0,0,0,0-12.4,11.5,11.5,0,0,0-4-4,11,11,0,0,0-6-1.6,11.5,11.5,0,0,0-10,6,13,13,0,0,0,0,12.4A12,12,0,0,0,331,41,11.4,11.4,0,0,0,337,42.6Z"/><path d="M365,8a3,3,0,0,1-2.5-1,3.4,3.4,0,0,1-1-2.5,3,3,0,0,1,1-2.5,3.4,3.4,0,0,1,5,0,3,3,0,0,1,1,2.5,3.4,3.4,0,0,1-1,2.5A3,3,0,0,1,365,8ZM365,47a2.5,2.5,0,0,1-2-.7,2.5,2.5,0,0,1-.7-2V16.6a2.5,2.5,0,0,1,.7-2A2.5,2.5,0,0,1,365,14a2.5,2.5,0,0,1,2,.7,2.5,2.5,0,0,1,.7,2V44a2.5,2.5,0,0,1-.7,2,2.5,2.5,0,0,1-2,.7Z"/><path d="M391,47A17,17,0,0,1,382.5,45a15.7,15.7,0,0,1-6-6,18,18,0,0,1,0-17,15.7,15.7,0,0,1,6-6,17,17,0,0,1,8.6-2,16.6,16.6,0,0,1,8.5,2,15.7,15.7,0,0,1,6,6,17.5,17.5,0,0,1,2,8.6,17,17,0,0,1-2,8.6A15.7,15.7,0,0,1,399.6,45,17,17,0,0,1,391,47Zm0-4.6a11,11,0,0,0,10-6,13.7,13.7,0,0,0,0-12.4,11,11,0,0,0-4-4,12,12,0,0,0-16,4v0h0a13.4,13.4,0,0,0,0,12.4,11.5,11.5,0,0,0,10,6Z"/></svg>